<svg width="1522" height="2237" viewBox="0 0 1522 2237" fill="none" xmlns="http://www.w3.org/2000/svg">
<path d="M84.5394 76.7317L84.5124 76.8945L84.5239 77.0591L110.754 453.179L58.7652 1284.53L1.65232 1477.4L1.52756 1477.82L1.66498 1478.24L14.2653 1516.51L82.1842 2233.64L82.3048 2234.91H83.5835H1443.2H1444.47L1444.59 2233.64L1512.52 1516.42L1520 1478.07L1520.07 1477.74L1519.97 1477.41L1463.33 1283.6L1416.96 454.595L1446.94 75.6667L1446.95 75.4933L1446.92 75.3218L1434.74 3.17153L1434.54 1.99999H1433.36H1408.99H1407.73L1407.6 3.25445L1403.98 36.6696H127.43L122.454 3.19886L122.276 1.99999H121.064H98.1072H96.9153L96.7206 3.17588L84.5394 76.7317Z" fill="white" stroke="black" stroke-width="2.81105"/>
<path d="M121.064 44.6343L113.1 77.4299L1420.24 76.4929L1406.18 44.6343H121.064Z" fill="black"/>
<path d="M134.182 380.086L128.092 310.747H1398.22L1389.32 380.086H134.182Z" fill="black"/>
<path d="M135.588 380.555L132.777 432.559L108.415 76.4929L121.533 2L126.218 38.0752L114.037 76.4929L135.588 380.555Z" fill="black"/>
<path d="M1388.38 381.023L1392.13 434.433L1422.11 77.8984L1408.99 3.40552L1404.31 39.4807L1416.49 77.8984L1388.38 381.023Z" fill="black"/>
<path d="M1443.66 2222.73H83.1147L84.0518 2233.97H1442.26L1443.66 2222.73Z" fill="black"/>
<path d="M42.3545 1515.75L32.9844 1481.55L1491.45 1480.14L1484.42 1515.75H42.3545Z" fill="black"/>
<path d="M104.666 2222.73L85.9258 1992.22L1443.19 1991.29L1423.52 2222.73H104.666Z" fill="black"/>
<path d="M82.1777 1305.86H1440.85" stroke="black" stroke-width="5.6221" stroke-linecap="round"/>
<path d="M45.1655 1514.35L104.666 2220.86" stroke="black" stroke-width="5.6221" stroke-linecap="round"/>
<path d="M86.8628 1277.75L35.7954 1482.49" stroke="black" stroke-width="5.6221" stroke-linecap="round"/>
<path d="M1492.39 1480.14L1485.36 1515.75L1423.52 2224.14" stroke="black" stroke-width="5.6221" stroke-linecap="round"/>
<path d="M1436.17 1277.75L1490.98 1479.68" stroke="black" stroke-width="5.6221" stroke-linecap="round"/>
</svg>
