<svg width="1523" height="2237" viewBox="0 0 1523 2237" fill="none" xmlns="http://www.w3.org/2000/svg">
  <path
    d="M85.2269 76.7317L85.1999 76.8945L85.2114 77.0591L111.441 453.179L59.4527 1284.53L2.33982 1477.4L2.21506 1477.82L2.35248 1478.24L14.9528 1516.51L82.8717 2233.64L82.9923 2234.91H84.271H1443.88H1445.16L1445.28 2233.64L1513.21 1516.42L1520.69 1478.07L1520.76 1477.74L1520.66 1477.41L1464.02 1283.6L1417.65 454.595L1447.63 75.6667L1447.64 75.4933L1447.61 75.3218L1435.43 3.17153L1435.23 1.99999H1434.04H1409.68H1408.42L1408.28 3.25445L1404.67 36.6696H128.117L123.142 3.19886L122.964 1.99999H121.752H98.7947H97.6028L97.4081 3.17588L85.2269 76.7317Z"
    fill="white" stroke="black" stroke-width="2.81105" />
</svg>