<svg width="407" height="176" viewBox="0 0 407 176" fill="none" xmlns="http://www.w3.org/2000/svg">
  <path
    d="M21.328 175.719C21.328 175.719 19.8081 175.703 19.1308 175.703C13.1338 175.719 7.12037 175.703 1.12342 175.736C0.280871 175.736 -0.0330196 175.471 2.14762e-05 174.629C0.132186 171.027 0.793007 167.508 2.06509 164.154C4.2458 158.339 7.64903 153.399 12.4565 149.335C16.6197 145.816 21.328 143.486 26.565 142.148C30.15 141.239 33.8176 141.107 37.4851 141.372C40.6405 141.603 43.7464 142.066 46.6871 143.404C48.0748 144.032 49.5286 144.527 51.1311 145.155C50.9659 143.156 50.652 141.454 50.7181 139.753C50.8668 136.019 51.065 132.285 51.478 128.568C52.1554 122.471 53.9561 116.672 56.5663 111.121C57.3098 109.568 58.0202 107.999 58.7471 106.446C60.6965 103.538 62.6459 100.63 64.5788 97.7062C65.4544 96.401 66.3135 95.0793 67.1725 93.7741C67.7342 93.4933 68.362 93.3115 68.8246 92.9316C71.9965 90.3708 75.1189 87.7935 78.2578 85.1997C78.8525 84.704 79.3977 84.1588 79.9594 83.6467C82.4045 82.325 84.8495 81.0198 87.2945 79.6981C87.7571 79.599 88.2362 79.5825 88.6657 79.4172C90.863 78.5086 92.9941 77.4017 95.2409 76.6747C100.561 74.94 106.012 73.8827 111.629 73.6514C112.455 73.6183 113.628 73.8 114.091 72.627C114.686 71.1401 115.231 69.6367 115.925 68.1994C117.891 64.1517 119.807 60.0875 121.988 56.1554C123.607 53.2477 125.606 50.5382 127.423 47.7462C130.215 44.1776 133.007 40.609 135.799 37.057C138.591 34.3971 141.251 31.5885 144.208 29.1268C148.701 25.393 153.393 21.9071 158.019 18.322C160.877 16.6699 163.752 15.0177 166.61 13.3656C166.775 13.3161 166.94 13.2995 167.089 13.2169C175.151 8.88838 183.659 5.68327 192.514 3.519C197.784 2.23035 203.219 1.5695 208.605 0.842572C212.157 0.363459 215.758 0.297374 219.327 0.0330353C222.251 0.214768 225.191 0.330416 228.116 0.578234C231.387 0.859094 234.658 1.13995 237.912 1.63559C241.167 2.14774 244.372 2.92424 247.593 3.58509C249.311 3.94855 251.03 4.32854 252.748 4.70853C253.029 4.90678 253.276 5.20416 253.59 5.28677C260.199 7.07105 266.41 9.84661 272.473 12.9361C278.305 15.9099 283.889 19.3298 289.076 23.3279C294 27.1112 298.625 31.1754 302.838 35.7518C306.357 39.5847 309.694 43.5167 312.783 47.7131C318.979 56.172 323.736 65.3743 327.255 75.1713C329.106 80.3094 330.477 85.6292 331.666 90.9655C332.641 95.2776 333.104 99.7052 333.599 104.116C333.748 105.471 334.144 105.835 335.4 105.735C337.895 105.521 340.406 105.157 342.9 105.256C346.601 105.405 350.335 105.686 353.986 106.297C357.471 106.875 360.941 107.718 364.294 108.825C369.069 110.411 373.645 112.526 377.775 115.483C380.485 117.416 383.31 119.233 385.771 121.447C390.149 125.396 394.114 129.741 397.22 134.829C400.359 139.967 402.886 145.337 404.555 151.103C405.249 153.498 405.678 155.976 406.058 158.438C406.488 161.329 406.835 164.237 407 167.161C407.116 169.259 406.851 171.391 406.785 173.505C406.719 175.637 406.637 175.752 404.456 175.752C385.49 175.752 366.525 175.752 347.559 175.752C346.304 175.752 345.065 175.934 343.809 176.017C343.445 175.917 343.082 175.736 342.719 175.736C339.877 175.736 337.052 175.769 334.211 175.785C334.128 175.785 334.029 175.785 333.946 175.785C333.418 175.769 332.905 175.719 332.377 175.719C282.766 175.719 233.138 175.719 183.527 175.719C179.099 175.719 174.672 175.769 170.228 175.785C168.03 175.785 165.817 175.736 163.619 175.752C163.091 175.752 162.546 175.917 162.017 176.017C161.571 175.917 161.125 175.752 160.679 175.752C158.002 175.736 155.326 175.736 152.65 175.752C152.253 175.752 151.84 175.884 151.444 175.967C148.834 175.901 146.24 175.835 143.63 175.769L143.101 175.653C143.018 175.653 142.919 175.653 142.837 175.653C142.572 175.653 142.324 175.653 142.06 175.67H141.796C140.491 175.67 139.186 175.67 137.88 175.67C137.798 175.67 137.699 175.67 137.616 175.67C137.352 175.67 137.104 175.703 136.84 175.703C119.146 175.703 101.469 175.703 83.7757 175.703C79.8768 175.703 75.9615 175.769 72.0626 175.802C68.5107 175.769 61.4069 175.703 61.4069 175.703H21.328V175.719Z"
    stroke="white" stroke-width="2" stroke-linejoin="round" stroke-dasharray="4 4" />
</svg>