<svg width="330" height="94" viewBox="0 0 330 94" fill="none" xmlns="http://www.w3.org/2000/svg">
  <g filter="url(#filter0_d_207_702)">
    <rect width="330" height="88" rx="44" fill="#1C1E1C" shape-rendering="crispEdges" />
    <path
      d="M85.168 31.7C88.636 31.7 91.3787 32.5727 93.396 34.318C95.4133 36.0407 96.422 38.5113 96.422 41.73H89.248C89.248 40.37 88.8853 39.2933 88.16 38.5C87.4573 37.7067 86.4487 37.31 85.134 37.31C83.6153 37.31 82.4933 37.786 81.768 38.738C81.0653 39.69 80.714 41.016 80.714 42.716V44.892C80.714 46.5693 81.0653 47.8953 81.768 48.87C82.4933 49.822 83.5927 50.298 85.066 50.298C86.5167 50.298 87.616 49.924 88.364 49.176C89.112 48.428 89.486 47.374 89.486 46.014H96.422C96.422 49.21 95.436 51.658 93.464 53.358C91.5147 55.058 88.7493 55.908 85.168 55.908C81.1787 55.908 78.1527 54.888 76.09 52.848C74.05 50.808 73.03 47.7933 73.03 43.804C73.03 39.8147 74.05 36.8 76.09 34.76C78.1527 32.72 81.1787 31.7 85.168 31.7ZM112.107 31.7C116.142 31.7 119.258 32.7313 121.457 34.794C123.656 36.8567 124.755 39.86 124.755 43.804C124.755 47.748 123.656 50.7513 121.457 52.814C119.258 54.8767 116.142 55.908 112.107 55.908C108.072 55.908 104.956 54.888 102.757 52.848C100.581 50.7853 99.4929 47.7707 99.4929 43.804C99.4929 39.8373 100.581 36.834 102.757 34.794C104.956 32.7313 108.072 31.7 112.107 31.7ZM112.107 37.31C110.498 37.31 109.274 37.7973 108.435 38.772C107.596 39.7467 107.177 41.0613 107.177 42.716V44.892C107.177 46.5467 107.596 47.8613 108.435 48.836C109.274 49.8107 110.498 50.298 112.107 50.298C113.716 50.298 114.94 49.8107 115.779 48.836C116.64 47.8613 117.071 46.5467 117.071 44.892V42.716C117.071 41.0613 116.64 39.7467 115.779 38.772C114.94 37.7973 113.716 37.31 112.107 37.31ZM145.529 55.5L135.703 44.144V55.5H128.801V32.108H135.363L145.189 43.634V32.108H152.091V55.5H145.529ZM173.851 55.5L164.025 44.144V55.5H157.123V32.108H163.685L173.511 43.634V32.108H180.413V55.5H173.851ZM185.446 32.108H205.676V37.718H192.96V40.948H203.84V46.32H192.96V49.89H205.914V55.5H185.446V32.108ZM221.135 31.7C224.603 31.7 227.345 32.5727 229.363 34.318C231.38 36.0407 232.389 38.5113 232.389 41.73H225.215C225.215 40.37 224.852 39.2933 224.127 38.5C223.424 37.7067 222.415 37.31 221.101 37.31C219.582 37.31 218.46 37.786 217.735 38.738C217.032 39.69 216.681 41.016 216.681 42.716V44.892C216.681 46.5693 217.032 47.8953 217.735 48.87C218.46 49.822 219.559 50.298 221.033 50.298C222.483 50.298 223.583 49.924 224.331 49.176C225.079 48.428 225.453 47.374 225.453 46.014H232.389C232.389 49.21 231.403 51.658 229.431 53.358C227.481 55.058 224.716 55.908 221.135 55.908C217.145 55.908 214.119 54.888 212.057 52.848C210.017 50.808 208.997 47.7933 208.997 43.804C208.997 39.8147 210.017 36.8 212.057 34.76C214.119 32.72 217.145 31.7 221.135 31.7ZM249.91 38.092V55.5H242.396V38.092H234.712V32.108H257.56V38.092H249.91Z"
      fill="white" />
    <rect x="1" y="1" width="328" height="86" rx="43" stroke="white" stroke-width="2" shape-rendering="crispEdges" />
  </g>
  <defs>
    <filter id="filter0_d_207_702" x="0" y="0" width="330" height="94" filterUnits="userSpaceOnUse"
      color-interpolation-filters="sRGB">
      <feFlood flood-opacity="0" result="BackgroundImageFix" />
      <feColorMatrix in="SourceAlpha" type="matrix" values="0 0 0 0 0 0 0 0 0 0 0 0 0 0 0 0 0 0 127 0"
        result="hardAlpha" />
      <feOffset dy="6" />
      <feComposite in2="hardAlpha" operator="out" />
      <feColorMatrix type="matrix" values="0 0 0 0 0 0 0 0 0 0 0 0 0 0 0 0 0 0 1 0" />
      <feBlend mode="normal" in2="BackgroundImageFix" result="effect1_dropShadow_207_702" />
      <feBlend mode="normal" in="SourceGraphic" in2="effect1_dropShadow_207_702" result="shape" />
    </filter>
  </defs>
</svg>