<svg width="313" height="189" viewBox="0 0 313 189" fill="none" xmlns="http://www.w3.org/2000/svg">
  <ellipse cx="156.5" cy="124" rx="156.5" ry="65" fill="black" />
  <ellipse cx="156.5" cy="120" rx="120.5" ry="52" fill="#181A19" />
  <ellipse cx="156.5" cy="117" rx="47.5" ry="20" fill="black" />
  <path d="M31.5 115.75L15 122.25L30 132.25" stroke="white" stroke-width="3" stroke-linecap="round"
    stroke-linejoin="round" />
  <path d="M281.5 115.75L298 122.25L283 132.25" stroke="white" stroke-width="3" stroke-linecap="round"
    stroke-linejoin="round" />
  <path
    d="M143.363 52.6802L193.91 68.6176L177.127 121.847C174.47 130.274 165.484 134.952 157.056 132.295L145.612 128.686C132.443 124.534 125.134 110.494 129.286 97.3258L143.363 52.6802Z"
    fill="#121516" />
  <path
    d="M185.504 65.9671L191.049 67.7155L173.739 122.614C172.774 125.677 169.508 127.376 166.446 126.411L185.504 65.9671Z"
    fill="white" />
  <path opacity="0.15"
    d="M153 55.7188L146.902 53.7959L130.475 105.895C129.413 109.263 131.283 112.854 134.651 113.916L153 55.7188Z"
    fill="white" />
  <path
    d="M147.615 22.5652C152.764 6.2368 170.174 -2.82645 186.503 2.32188L188.41 2.92329C204.738 8.07162 213.802 25.482 208.653 41.8104L196.024 81.8665C192.702 92.401 181.47 98.2482 170.935 94.9267L148.046 87.7098C137.512 84.3883 131.664 73.1558 134.986 62.6213L147.615 22.5652Z"
    fill="black" />
  <path
    d="M151.783 25.9762C156.267 11.7547 171.431 3.86086 185.652 8.34489C199.874 12.8289 207.767 27.9928 203.283 42.2143L190.654 82.2704C187.83 91.2247 178.283 96.1949 169.329 93.3716L150.254 87.3575C141.3 84.5342 136.33 74.9866 139.153 66.0323L151.783 25.9762Z"
    fill="white" />
  <path
    d="M151.758 26.0535C155.495 14.2036 168.13 7.62619 179.98 11.3624C191.829 15.0987 198.407 27.7338 194.671 39.5837L179.058 89.0996C177.896 92.7867 173.964 94.8332 170.277 93.6707L148.347 86.756C140.446 84.2649 136.06 75.8406 138.552 67.9397L151.758 26.0535Z"
    fill="black" />
</svg>