<svg width="313" height="189" viewBox="0 0 313 189" fill="none" xmlns="http://www.w3.org/2000/svg">
  <ellipse cx="156.5" cy="124" rx="156.5" ry="65" fill="black" />
  <ellipse cx="156.5" cy="120" rx="120.5" ry="52" fill="#181A19" />
  <ellipse cx="156.5" cy="117" rx="47.5" ry="20" fill="black" />
  <path d="M31.5 115.75L15 122.25L30 132.25" stroke="white" stroke-width="3" stroke-linecap="round"
    stroke-linejoin="round" />
  <path d="M281.5 115.75L298 122.25L283 132.25" stroke="white" stroke-width="3" stroke-linecap="round"
    stroke-linejoin="round" />
  <path
    d="M115.112 68.9183L165.659 52.9809L182.442 106.21C185.099 114.638 180.421 123.624 171.993 126.281L160.549 129.889C147.381 134.041 133.34 126.732 129.188 113.564L115.112 68.9183Z"
    fill="#121516" />
  <path
    d="M153.908 56.6859L162.797 53.883L179.052 105.437C180.6 110.347 177.875 115.582 172.966 117.13L153.908 56.6859Z"
    fill="white" />
  <path opacity="0.1"
    d="M124.749 65.8796L118.65 67.8025L135.077 119.901C136.139 123.27 139.73 125.139 143.099 124.077L124.749 65.8796Z"
    fill="white" />
  <path
    d="M101.322 41.8103C96.1735 25.4819 105.237 8.07157 121.565 2.92324L123.473 2.32183C139.801 -2.82651 157.211 6.23675 162.36 22.5652L174.989 62.6213C178.311 73.1558 172.464 84.3882 161.929 87.7097L139.04 94.9267C128.506 98.2482 117.273 92.4009 113.952 81.8665L101.322 41.8103Z"
    fill="black" />
  <path
    d="M106.692 42.2143C102.208 27.9927 110.102 12.8289 124.323 8.34484C138.545 3.86081 153.709 11.7546 158.193 25.9761L170.822 66.0323C173.646 74.9865 168.675 84.5342 159.721 87.3574L140.647 93.3716C131.692 96.1948 122.145 91.2247 119.322 82.2704L106.692 42.2143Z"
    fill="white" />
  <path
    d="M105.741 39.1987C102.005 27.3488 108.582 14.7137 120.432 10.9775C132.282 7.24123 144.917 13.8186 148.653 25.6685L165.241 78.2773C166.403 81.9644 164.357 85.8957 160.67 87.0583L138.739 93.9729C130.838 96.4641 122.414 92.0786 119.923 84.1778L105.741 39.1987Z"
    fill="black" />
</svg>