<svg width="580" height="244" viewBox="0 0 580 244" fill="none" xmlns="http://www.w3.org/2000/svg">
  <path
    d="M195.56 61.4C200.048 61.4 204.083 62.08 207.664 63.44C211.245 64.8 214.079 66.8173 216.164 69.492C218.295 72.1213 219.36 75.34 219.36 79.148H205.012C205.012 77.1987 204.151 75.6347 202.428 74.456C200.705 73.232 198.62 72.62 196.172 72.62C192.636 72.62 189.961 73.572 188.148 75.476C186.335 77.3347 185.428 79.9867 185.428 83.432V87.784C185.428 91.2293 186.335 93.904 188.148 95.808C189.961 97.6667 192.636 98.596 196.172 98.596C198.62 98.596 200.705 98.0293 202.428 96.896C204.151 95.7173 205.012 94.2213 205.012 92.408H194.404V82.888H219.36V109H211.608L210.112 104.376C205.851 108.003 200.275 109.816 193.384 109.816C185.632 109.816 179.807 107.799 175.908 103.764C172.009 99.684 170.06 93.632 170.06 85.608C170.06 77.6747 172.259 71.668 176.656 67.588C181.099 63.4627 187.4 61.4 195.56 61.4ZM260.025 109L258.053 102.404H241.665L239.693 109H224.325L241.393 62.216H258.869L275.937 109H260.025ZM244.793 91.932H254.925L250.029 75.272H249.757L244.793 91.932ZM326.006 76.564C326.006 79.42 325.236 82.004 323.694 84.316C322.153 86.628 319.909 88.328 316.962 89.416L327.366 109H310.502L302.206 91.932H296.63V109H281.602V62.216H310.23C313.585 62.216 316.441 62.8733 318.798 64.188C321.201 65.4573 322.992 67.2027 324.17 69.424C325.394 71.6 326.006 73.98 326.006 76.564ZM310.706 77.176C310.706 75.952 310.298 74.932 309.482 74.116C308.666 73.3 307.669 72.892 306.49 72.892H296.63V81.528H306.49C307.669 81.528 308.666 81.12 309.482 80.304C310.298 79.4427 310.706 78.4 310.706 77.176ZM365.672 62.216C368.029 62.216 370.183 62.7147 372.132 63.712C374.127 64.664 375.691 66.024 376.824 67.792C378.003 69.56 378.592 71.532 378.592 73.708C378.592 79.4653 375.985 83.092 370.772 84.588V84.86C376.711 86.22 379.68 90.1187 379.68 96.556C379.68 99.004 379.068 101.18 377.844 103.084C376.665 104.943 375.033 106.393 372.948 107.436C370.863 108.479 368.573 109 366.08 109H334.528V62.216H365.672ZM349.556 80.44H359.892C360.889 80.44 361.705 80.1 362.34 79.42C363.02 78.6947 363.36 77.8107 363.36 76.768V76.088C363.36 75.0907 363.02 74.252 362.34 73.572C361.66 72.8467 360.844 72.484 359.892 72.484H349.556V80.44ZM349.556 98.12H360.98C361.977 98.12 362.793 97.78 363.428 97.1C364.108 96.3747 364.448 95.4907 364.448 94.448V93.768C364.448 92.7253 364.108 91.864 363.428 91.184C362.793 90.4587 361.977 90.096 360.98 90.096H349.556V98.12ZM417.673 109L415.701 102.404H399.313L397.341 109H381.973L399.041 62.216H416.517L433.585 109H417.673ZM402.441 91.932H412.573L407.677 75.272H407.405L402.441 91.932ZM461.583 61.4C466.071 61.4 470.106 62.08 473.687 63.44C477.269 64.8 480.102 66.8173 482.187 69.492C484.318 72.1213 485.383 75.34 485.383 79.148H471.035C471.035 77.1987 470.174 75.6347 468.451 74.456C466.729 73.232 464.643 72.62 462.195 72.62C458.659 72.62 455.985 73.572 454.171 75.476C452.358 77.3347 451.451 79.9867 451.451 83.432V87.784C451.451 91.2293 452.358 93.904 454.171 95.808C455.985 97.6667 458.659 98.596 462.195 98.596C464.643 98.596 466.729 98.0293 468.451 96.896C470.174 95.7173 471.035 94.2213 471.035 92.408H460.427V82.888H485.383V109H477.631L476.135 104.376C471.874 108.003 466.298 109.816 459.407 109.816C451.655 109.816 445.83 107.799 441.931 103.764C438.033 99.684 436.083 93.632 436.083 85.608C436.083 77.6747 438.282 71.668 442.679 67.588C447.122 63.4627 453.423 61.4 461.583 61.4ZM494.7 62.216H535.16V73.436H509.728V79.896H531.488V90.64H509.728V97.78H535.636V109H494.7V62.216ZM212.384 132.064C241.745 132.064 256.426 146.053 256.426 174.032C256.426 202.011 241.745 216 212.384 216H176.028V132.064H212.384ZM202.99 195.87H211.896C223.201 195.87 228.854 189.811 228.854 177.692V170.372C228.854 158.253 223.201 152.194 211.896 152.194H202.99V195.87ZM350.649 157.806C350.649 162.93 349.266 167.566 346.501 171.714C343.736 175.862 339.71 178.912 334.423 180.864L353.089 216H322.833L307.949 185.378H297.945V216H270.983V132.064H322.345C328.364 132.064 333.488 133.243 337.717 135.602C342.028 137.879 345.24 141.011 347.355 144.996C349.551 148.9 350.649 153.17 350.649 157.806ZM323.199 158.904C323.199 156.708 322.467 154.878 321.003 153.414C319.539 151.95 317.75 151.218 315.635 151.218H297.945V166.712H315.635C317.75 166.712 319.539 165.98 321.003 164.516C322.467 162.971 323.199 161.1 323.199 158.904ZM405.637 130.6C420.114 130.6 431.297 134.301 439.187 141.702C447.076 149.103 451.021 159.88 451.021 174.032C451.021 188.184 447.076 198.961 439.187 206.362C431.297 213.763 420.114 217.464 405.637 217.464C391.159 217.464 379.976 213.804 372.087 206.484C364.279 199.083 360.375 188.265 360.375 174.032C360.375 159.799 364.279 149.022 372.087 141.702C379.976 134.301 391.159 130.6 405.637 130.6ZM405.637 150.73C399.862 150.73 395.47 152.479 392.461 155.976C389.451 159.473 387.947 164.191 387.947 170.128V177.936C387.947 183.873 389.451 188.591 392.461 192.088C395.47 195.585 399.862 197.334 405.637 197.334C411.411 197.334 415.803 195.585 418.813 192.088C421.903 188.591 423.449 183.873 423.449 177.936V170.128C423.449 164.191 421.903 159.473 418.813 155.976C415.803 152.479 411.411 150.73 405.637 150.73ZM512.632 132.064C517.837 132.064 522.473 133.284 526.54 135.724C530.606 138.083 533.778 141.377 536.056 145.606C538.333 149.754 539.472 154.431 539.472 159.636V161.222C539.472 166.427 538.333 171.145 536.056 175.374C533.778 179.603 530.606 182.938 526.54 185.378C522.473 187.737 517.837 188.916 512.632 188.916H492.502V216H465.54V132.064H512.632ZM492.502 169.274H503.604C506.45 169.274 508.565 168.542 509.948 167.078C511.412 165.614 512.144 163.621 512.144 161.1V160.124C512.144 157.521 511.412 155.529 509.948 154.146C508.565 152.682 506.45 151.95 503.604 151.95H492.502V169.274Z"
    fill="white" />
  <g clip-path="url(#clip0_131_773)">
    <path
      d="M70.0801 243.34C69.5401 243.46 69.0101 243.58 68.4701 243.71C68.2901 243.73 68.1001 243.75 67.9201 243.77L66.9301 243.96C66.7601 243.97 66.5901 243.99 66.4201 244C66.0801 244 65.7401 244 65.4101 244C64.9001 243.96 64.3901 243.93 63.8801 243.89L63.9301 243.77C63.6901 243.74 63.4401 243.7 63.2001 243.67C60.1801 242.78 57.1601 241.89 54.1301 241C53.8501 240.97 53.5701 240.94 53.2901 240.92C53.1301 240.86 52.9601 240.81 52.8001 240.75C52.6201 240.74 52.4401 240.72 52.2501 240.71C50.4101 240.65 48.5701 240.58 46.7301 240.52C45.7201 240.43 44.7101 240.33 43.7001 240.24C43.5201 240.23 43.3301 240.21 43.1501 240.2C40.4001 239.87 37.6201 239.66 34.9001 239.17C30.5901 238.39 26.8101 236.53 23.5901 233.45C19.3801 229.43 15.2401 225.38 12.2101 220.35C9.6401 216.08 7.9901 211.58 8.6201 206.47C8.6901 205.88 8.3801 205.2 8.1101 204.63C6.5401 201.3 4.9201 197.98 3.3301 194.67L3.4101 194.65H3.3301C0.950103 187.12 0.460103 179.41 0.080103 171.56C-0.219897 165.44 0.700103 159.56 1.0901 153.57C1.4701 147.82 0.960103 142.01 0.840103 136.22C0.900103 136.17 1.0101 136.09 1.0001 136.06C0.950103 135.92 0.870103 135.8 0.800103 135.67C0.770103 131.31 0.490103 126.93 0.800103 122.59C1.0601 119 2.5901 115.92 6.6001 114.93C11.0301 113.83 14.4601 115.77 15.7201 120.16C15.9701 121.04 16.0701 121.97 16.2401 122.88C16.2601 123.11 16.2801 123.35 16.3001 123.58C16.3201 123.76 16.3401 123.93 16.3701 124.11C16.4301 124.24 16.4901 124.37 16.5501 124.49L16.9201 124.08C20.6401 118.1 24.3601 112.12 28.0801 106.14C28.9701 104.72 29.8401 103.28 30.7401 101.87C33.3501 97.76 35.2401 93.48 34.8001 88.4C34.6401 86.5 35.0301 84.55 35.1701 82.63C35.2301 82.58 35.3501 82.52 35.3501 82.48C35.3301 82.34 35.2701 82.21 35.2201 82.08C35.9101 75.72 37.4901 69.69 41.6501 64.6C41.9901 64.19 42.1401 63.55 42.2101 62.99C42.8001 58.53 44.6101 54.56 47.4901 51.19C48.7001 49.77 48.4601 48.82 47.6601 47.49C45.1901 43.39 41.9101 40.06 38.0501 37.27C35.9401 35.74 33.7701 34.29 31.7601 32.63C24.7401 26.82 24.2501 18.6 30.8201 12.27C36.5301 6.75999 43.4001 3.06999 51.0801 0.949993C51.3201 0.899993 51.5501 0.849993 51.7901 0.789993C55.6001 -0.100007 59.4301 -0.260007 63.2501 0.589993C72.0601 2.54999 76.7901 8.34999 78.5101 16.95C78.7101 17.93 78.8101 18.94 78.9501 19.93C78.8901 19.99 78.7801 20.06 78.7901 20.09C78.8401 20.23 78.9201 20.35 78.9901 20.48C79.7801 29.16 78.2401 37.57 75.8701 45.85C75.4401 47.34 75.6301 48.3 76.6101 49.45C79.4601 52.8 81.8401 56.43 82.9701 60.78C83.1501 61.49 83.7801 62.23 84.4001 62.66C93.0901 68.64 99.3101 76.54 103.36 86.3C105.96 92.58 109.06 98.65 111.79 104.87C112.61 106.74 113.43 107.58 115.26 106.1C115.5 106.04 115.73 105.97 115.97 105.91C120.75 105.52 123.21 107.26 123.94 112.18C124.48 115.82 124.55 119.54 124.63 123.23C124.69 125.89 125.39 128.21 126.59 130.62C129.16 135.79 131.29 141.18 133.6 146.48L133.52 146.5L133.6 146.52C135.92 154.27 137.42 162.16 137.73 170.26C137.75 170.81 137.88 171.49 138.22 171.86C141.82 175.65 142.2 180.39 142.25 185.24C142.25 186.08 142.2 186.92 142.17 187.76C142.17 188.11 142.15 188.47 142.14 188.82V194.83C142.14 195.35 142.14 195.87 142.14 196.4C142.19 196.56 142.24 196.72 142.28 196.88C142.16 199.41 142.03 201.93 141.91 204.46C141.9 204.63 141.88 204.8 141.87 204.97C141.8 205.3 141.73 205.63 141.66 205.96C141.64 206.2 141.61 206.44 141.59 206.67C141.49 207.1 141.39 207.52 141.29 207.95C141.26 208.11 141.24 208.28 141.21 208.44C138.44 218.63 132 224.91 121.53 226.89C121.27 226.94 121.01 226.99 120.74 227.04C119.15 226.98 117.56 226.91 115.97 226.85C115.8 226.83 115.63 226.81 115.46 226.79C112.81 225.5 110.98 226 109.11 228.59C106.47 232.25 102.93 235.16 98.7301 237.03C97.1501 237.73 95.4001 238.03 93.7201 238.51C93.5501 238.52 93.3901 238.53 93.2201 238.54C92.7101 238.52 92.2101 238.5 91.7001 238.48C91.5301 238.46 91.3601 238.45 91.1901 238.43L86.6301 237.52C86.0201 237.55 85.4101 237.59 84.7901 237.62C82.7401 238.31 80.6601 238.9 78.6601 239.7C75.8701 240.82 73.1301 242.1 70.3701 243.31L70.2101 243.24L70.0801 243.37V243.34ZM14.2901 211.85C14.0001 211.8 13.7001 211.74 13.4101 211.69C14.7201 216.56 17.5401 220.52 20.9001 224.15C20.9601 224.19 21.0101 224.24 21.0701 224.28C21.1001 224.29 21.1401 224.28 21.1801 224.28C21.0801 224.25 20.9701 224.23 20.8701 224.2C20.9001 224.12 20.9701 224.04 20.9601 223.97C20.2901 219.08 19.1401 214.45 14.3001 211.86L14.2901 211.85ZM62.9101 79.98C62.9601 79.94 63.0601 79.9 63.0501 79.87C63.0401 79.76 62.9901 79.66 62.9501 79.55C63.1101 77.3 63.4001 75.05 63.3901 72.8C63.3801 70.69 62.0701 69.66 59.9501 69.71C57.8701 69.76 56.6801 70.86 56.7001 73C56.7201 74.92 56.8901 76.85 57.1401 78.75C57.9101 84.55 58.7401 90.35 59.5501 96.14C59.1801 97.35 58.5801 98.43 57.1201 98.2C55.5501 97.95 55.4401 96.68 55.2801 95.33C54.7501 91 54.1301 86.69 53.4101 82.39C53.2801 81.61 52.6801 80.69 52.0201 80.25C48.8601 78.17 46.2901 75.6 44.5001 72.25C44.2001 71.69 43.7101 71.23 43.3001 70.73C42.9301 71.28 42.4901 71.79 42.2101 72.37C40.2301 76.64 40.0001 81.26 39.5401 85.85C38.9401 91.91 40.5801 96.8 46.2201 99.92C46.7801 100.23 46.7601 101.6 47.0101 102.48C46.1201 102.67 44.9701 103.32 44.3801 102.98C42.6501 101.99 40.9101 100.81 39.6201 99.32C38.2201 97.7 37.8701 98.3 37.0701 99.73C35.0701 103.33 33.0201 106.91 30.7901 110.37C22.1801 123.75 13.7301 137.19 8.6801 152.44C6.7101 158.37 5.2201 164.39 4.8601 170.6C4.4401 177.93 5.1901 185.18 7.3401 192.26C9.4601 199.23 13.3501 204.97 18.8301 209.71C19.8501 210.59 20.3901 210.58 20.6001 209.18C21.0501 206.13 21.7601 203.09 21.8601 200.03C21.9801 196.26 21.3801 192.48 21.4601 188.71C21.5001 186.76 21.9701 184.63 22.8901 182.93C24.8501 179.29 26.9801 179.17 31.3401 179.71C33.6901 180 35.8501 182.89 36.0701 185.64C36.1901 187.23 36.1601 188.84 36.1501 190.44C36.1301 196.22 35.8101 202.03 36.1701 207.79C36.4101 211.59 37.4701 215.37 38.4901 219.07C38.7901 220.14 40.0601 221.37 41.1501 221.73C45.6101 223.17 50.1001 224.7 54.7001 225.47C65.1601 227.22 75.6901 228.03 86.3001 226.34C88.5001 225.99 89.6401 225.08 90.3301 223.2C90.7101 222.18 91.1201 221.15 91.3401 220.09C92.5501 214.19 92.4301 208.23 91.8301 202.28C91.5401 199.37 90.8801 196.48 90.7501 193.56C90.5901 189.87 92.7601 187.38 95.8201 187.22C99.3701 187.03 102.44 189.31 102.7 192.83C102.95 196.26 102.9 199.75 102.52 203.16C102.26 205.52 102.46 207.61 103.39 209.76C104.32 211.91 105.04 214.15 105.75 216.39C106.17 217.7 106.39 219.08 106.7 220.43C107.87 219.67 109.13 219.01 110.2 218.13C112.72 216.06 115.46 214.15 117.55 211.69C123.68 204.46 126.14 195.85 126.09 186.47C126.08 183.69 125.86 180.9 126.06 178.14C126.32 174.56 127.93 171.66 131.5 170.38C132.79 169.92 133.27 169.29 133.06 168.01C132.76 166.11 132.35 164.22 132.21 162.3C131.64 154.48 129.08 147.22 126.17 140.05C126.03 139.69 125.76 139.39 125.54 139.06C125.37 139.47 125.13 139.87 125.03 140.31C123.33 147.86 119.64 150.93 111.94 150.82C104.33 150.72 96.9501 149.22 89.7901 146.65C86.3901 145.43 83.0401 144.11 80.3701 141.47C77.0901 138.21 78.7601 135.07 81.4901 133.26C82.2401 132.76 83.1501 132.42 84.0401 132.21C85.8301 131.77 87.6501 131.46 89.4601 131.12C91.2801 130.77 92.7801 130.28 92.8901 127.9C92.9401 126.73 93.6601 125.5 94.3301 124.45C96.0201 121.79 99.9901 120.29 102.72 121.14C105.08 121.87 106.67 124.47 106.85 127.78C106.9 128.66 107.13 129.52 107.28 130.39C108.1 129.73 108.94 129.11 109.71 128.4C109.99 128.13 110.22 127.66 110.24 127.27C110.42 122.5 110.57 117.73 110.68 112.96C110.68 112.59 110.29 112.23 110.12 111.85C106.32 103.7 102.4 95.6 98.7601 87.37C95.5001 79.98 90.9701 73.66 84.6101 68.66C83.5001 67.79 83.0701 67.68 82.4001 69.32C79.7101 75.96 75.6701 81.41 68.1401 83.01C66.4601 83.37 66.1901 84.49 66.0301 85.69C65.5801 88.92 65.2201 92.17 64.9501 95.43C64.8401 96.72 64.6501 97.87 63.2501 98.15C61.8101 98.44 61.1401 97.43 60.7501 96.2C61.4601 90.81 62.1801 85.41 62.8901 80.02L62.9101 79.98ZM120.55 221.66C120.68 221.66 120.81 221.65 120.94 221.64C129.44 220.23 136.02 213.4 136.62 204.65C137.12 197.36 137.06 190.04 137.05 182.73C137.05 180.94 136.47 179.07 135.78 177.4C135.4 176.48 134.2 175.9 133.38 175.17C132.65 176.11 131.51 176.96 131.27 178.01C130.91 179.61 131.06 181.36 131.18 183.03C131.59 188.88 131.08 194.71 129.37 200.24C126.96 208.05 123 215.04 116.29 220.13C115.94 220.4 115.71 220.83 115.42 221.18C115.88 221.32 116.33 221.56 116.8 221.59C118.06 221.66 119.32 221.65 120.58 221.67L120.55 221.66ZM26.5501 228.94C26.3701 228.99 26.1901 229.04 26.0201 229.09C26.1201 229.27 26.2201 229.45 26.3201 229.64C29.2401 232.69 32.9001 234.29 37.0101 234.82C40.3401 235.25 43.7001 235.54 47.0601 235.74C51.9301 236.03 56.7701 236.18 61.3301 238.38C64.2401 239.78 67.4101 239.67 70.4201 238.38C72.6601 237.42 74.8501 236.34 77.0201 235.23C81.5301 232.93 86.0901 232.06 91.1501 233.49C95.0101 234.59 98.1101 232.33 101.01 230.07C101.2 229.92 101.21 229.53 101.3 229.26C100.98 229.29 100.66 229.28 100.36 229.36C98.6601 229.82 96.9901 230.55 95.2701 230.71C91.5101 231.07 87.7101 231 83.9501 231.34C70.9901 232.51 58.2401 231.5 45.6901 228.06C45.1601 227.92 44.4401 227.76 44.0401 227.99C42.0601 229.16 40.4201 228.22 38.9001 227.19C35.4801 224.86 34.0401 221.24 33.1001 217.43C31.3201 210.19 30.7701 202.84 31.3801 195.39C31.6101 192.55 31.6001 189.68 31.6001 186.83C31.6001 185.39 31.0901 184.18 29.3301 184.04C27.5401 183.9 26.5701 184.9 26.3801 186.48C26.1001 188.72 25.7301 191.05 26.0301 193.25C26.9401 199.93 26.4201 206.38 24.7101 212.93C23.6001 217.2 23.8601 221.62 27.9501 224.88C29.6701 226.25 28.9401 228 26.5601 228.93L26.5501 228.94ZM74.4001 25.36C74.4001 23.34 74.5801 21.3 74.3401 19.31C74.1501 17.67 73.4901 16.07 73.0001 14.47C71.1501 8.40999 65.6501 4.98999 59.8801 4.81999C49.0101 4.48999 40.2901 9.39999 32.8901 16.89C30.2001 19.61 30.0601 23.56 32.4701 26.59C33.9501 28.45 35.9001 30.05 37.8901 31.39C45.7001 36.63 51.6901 43.19 54.9201 52.26C56.3401 56.23 59.1101 59.51 63.4901 60.95C64.8401 61.39 65.4701 61.06 65.9401 59.8C66.9101 57.21 68.0401 54.67 68.9901 52.07C72.1501 43.45 74.3901 34.62 74.3801 25.37L74.4001 25.36ZM110.51 146.88C111.52 146.88 112.53 146.88 113.54 146.88C117.28 146.86 119.88 145.12 120.76 141.47C121.32 139.14 121.61 136.68 121.57 134.28C121.49 128.99 121.19 123.7 120.85 118.42C120.7 116.09 120.4 113.73 119.81 111.48C119.6 110.67 118.29 109.58 117.55 109.63C116.63 109.69 115.25 110.65 115.02 111.49C114.53 113.21 114.63 115.11 114.57 116.93C114.45 120.19 114.52 123.45 114.26 126.7C114.01 129.75 112.19 131.93 109.74 133.65C106.55 135.89 104.11 134.92 103.43 131.04C103.2 129.72 103.3 128.35 103.06 127.03C102.64 124.69 100.85 123.81 99.0401 125.3C97.8501 126.28 96.6901 127.9 96.5001 129.36C96.1301 132.19 94.6001 133.56 92.1501 134.23C89.9701 134.82 87.7001 135.12 85.5401 135.76C84.4801 136.08 83.5701 136.89 82.6001 137.48C83.3001 138.34 83.9401 139.26 84.7201 140.04C85.1801 140.5 85.8501 140.76 86.4501 141.05C94.0601 144.7 102.15 146.4 110.52 146.87L110.51 146.88ZM67.4701 74.25C67.4701 74.59 67.4401 74.93 67.4701 75.26C67.5501 76.15 67.6601 77.04 67.7601 77.93C68.7801 77.65 69.9801 77.64 70.7801 77.06C77.1901 72.45 81.9301 64.65 75.6501 55.8C75.0801 54.99 74.3701 54.28 73.7301 53.52C73.3001 54.39 72.8501 55.25 72.4601 56.14C72.0201 57.14 71.6401 58.16 71.2401 59.18C71.0701 59.62 70.9301 60.08 70.7701 60.52C71.2301 60.44 71.7301 60.46 72.1401 60.26C73.3101 59.7 74.3601 59.77 74.9001 60.99C75.4201 62.17 74.8201 63.04 73.6701 63.62C69.7101 65.6 65.6801 66.02 61.5501 64.25C57.2601 62.41 54.3201 59.16 52.1701 55.13C51.6401 54.14 51.2701 53.5 50.3701 54.88C45.8601 61.84 45.1001 66.22 50.7501 73.14C51.1401 73.62 51.7701 73.92 52.2901 74.3C52.4301 73.69 52.6501 73.08 52.6801 72.47C52.9201 67.77 57.2701 64.54 61.8201 65.72C65.8301 66.76 67.5001 69.27 67.4701 74.27V74.25ZM12.5801 126.3C12.4001 124.72 12.3601 123.11 12.0101 121.57C11.6401 119.97 10.9301 118.47 8.8701 118.55C6.9201 118.63 5.4301 119.41 5.0001 121.48C4.7001 122.96 4.2701 124.47 4.3201 125.95C4.5601 132.76 4.9601 139.57 5.3001 146.38C5.3101 146.6 5.3901 146.82 5.4401 147.05C5.6101 146.79 5.8301 146.55 5.9601 146.27C7.2401 143.34 8.3101 140.31 9.8101 137.5C11.6901 133.97 12.4001 130.25 12.5801 126.31V126.3ZM98.8601 196.71C98.7101 195.79 98.6301 194.25 98.1601 192.85C97.9701 192.3 96.9401 191.84 96.2401 191.75C95.9501 191.71 95.2601 192.74 95.2101 193.33C95.1001 194.66 95.1401 196.03 95.3601 197.35C96.9501 206.91 97.4801 216.4 93.9801 225.72C93.9101 225.9 94.3601 226.51 94.5701 226.52C99.4801 226.58 102.7 222.87 101.65 218.06C101.08 215.46 99.8301 213.01 99.1001 210.43C98.5901 208.63 98.2001 206.72 98.1901 204.86C98.1701 202.35 98.5701 199.83 98.8401 196.73L98.8601 196.71Z"
      fill="#010201" />
    <path d="M142.13 188.77C142.13 188.42 142.15 188.06 142.16 187.71C142.16 188.06 142.14 188.42 142.13 188.77Z"
      fill="#405053" />
    <path d="M3.31006 194.61L3.40006 194.63L3.32006 194.65L3.31006 194.61Z" fill="#65E334" />
    <path
      d="M0.790039 135.65C0.860039 135.78 0.940039 135.9 0.990039 136.04C1.00004 136.07 0.890039 136.15 0.830039 136.2C0.820039 136.02 0.810039 135.83 0.790039 135.65Z"
      fill="#405053" />
    <path
      d="M16.9001 124.07L16.5301 124.48C16.4701 124.35 16.4101 124.22 16.3501 124.1C16.5301 124.1 16.7101 124.08 16.8901 124.07H16.9001Z"
      fill="#405053" />
    <path
      d="M78.9799 20.45C78.9099 20.32 78.8299 20.19 78.7799 20.06C78.7699 20.03 78.8799 19.95 78.9399 19.9C78.9499 20.09 78.9699 20.27 78.9799 20.46V20.45Z"
      fill="#405053" />
    <path d="M133.58 146.48L133.5 146.46L133.58 146.44V146.48Z" fill="#65E334" />
    <path
      d="M35.1999 82.06C35.2499 82.19 35.3099 82.32 35.3299 82.46C35.3299 82.5 35.2199 82.56 35.1499 82.61C35.1699 82.43 35.1799 82.24 35.1999 82.06Z"
      fill="#405053" />
    <path
      d="M51.7803 0.759995C51.5403 0.809995 51.3103 0.859995 51.0703 0.919995C51.3103 0.869995 51.5403 0.819995 51.7803 0.759995Z"
      fill="#405053" />
    <path d="M84.79 237.59C85.4 237.56 86.01 237.52 86.63 237.49C86.02 237.52 85.41 237.56 84.79 237.59Z"
      fill="#E7EDD9" />
    <path d="M52.25 240.7C52.43 240.71 52.61 240.73 52.8 240.74C52.62 240.73 52.44 240.71 52.25 240.7Z"
      fill="#405053" />
    <path
      d="M141.86 204.92C141.87 204.75 141.89 204.58 141.9 204.41C141.95 204.54 142.02 204.66 142.05 204.79C142.05 204.82 141.93 204.87 141.86 204.92Z"
      fill="#E7EDD9" />
    <path d="M141.58 206.62C141.6 206.38 141.63 206.14 141.65 205.91C141.63 206.15 141.6 206.39 141.58 206.62Z"
      fill="#405053" />
    <path
      d="M141.2 208.39C141.23 208.23 141.25 208.06 141.28 207.9C141.3 208.02 141.34 208.14 141.34 208.27C141.34 208.31 141.25 208.35 141.2 208.4V208.39Z"
      fill="#405053" />
    <path d="M120.73 226.99C120.99 226.94 121.25 226.89 121.52 226.84C121.26 226.89 121 226.94 120.73 226.99Z"
      fill="#E7EDD9" />
    <path d="M53.2803 240.91C53.5603 240.94 53.8403 240.97 54.1203 240.99C53.8403 240.96 53.5603 240.93 53.2803 240.91Z"
      fill="#E7EDD9" />
    <path d="M70.0801 243.34L70.2101 243.21L70.3701 243.28L70.2401 243.43L70.0801 243.34Z" fill="#405053" />
    <path
      d="M60.7703 96.17C61.1603 97.39 61.8303 98.4 63.2703 98.12C64.6703 97.84 64.8703 96.69 64.9703 95.4C65.2403 92.15 65.6103 88.9 66.0503 85.66C66.2203 84.46 66.4803 83.34 68.1603 82.98C75.6903 81.38 79.7303 75.92 82.4203 69.29C83.0803 67.65 83.5203 67.76 84.6303 68.63C90.9903 73.63 95.5203 79.95 98.7803 87.34C102.41 95.57 106.34 103.67 110.14 111.82C110.32 112.2 110.71 112.56 110.7 112.93C110.59 117.7 110.44 122.47 110.26 127.24C110.25 127.63 110.02 128.1 109.73 128.37C108.97 129.08 108.12 129.71 107.3 130.36C107.15 129.49 106.92 128.62 106.87 127.75C106.69 124.44 105.11 121.84 102.74 121.11C100.01 120.26 96.0403 121.76 94.3503 124.42C93.6803 125.47 92.9603 126.7 92.9103 127.87C92.8103 130.26 91.3003 130.74 89.4803 131.09C87.6703 131.44 85.8503 131.75 84.0603 132.18C83.1803 132.4 82.2703 132.73 81.5103 133.23C78.7803 135.04 77.1103 138.18 80.3903 141.44C83.0503 144.09 86.4003 145.4 89.8103 146.62C96.9603 149.19 104.35 150.69 111.96 150.79C119.66 150.89 123.35 147.82 125.05 140.28C125.15 139.85 125.39 139.45 125.56 139.03C125.77 139.36 126.04 139.67 126.19 140.02C129.09 147.19 131.65 154.46 132.23 162.27C132.37 164.18 132.78 166.08 133.08 167.98C133.28 169.26 132.8 169.89 131.52 170.35C127.95 171.63 126.34 174.53 126.08 178.11C125.88 180.87 126.09 183.66 126.11 186.44C126.16 195.83 123.7 204.43 117.57 211.66C115.49 214.12 112.74 216.03 110.22 218.1C109.15 218.98 107.89 219.64 106.72 220.4C106.41 219.05 106.19 217.68 105.77 216.36C105.06 214.13 104.34 211.88 103.41 209.73C102.48 207.57 102.28 205.49 102.54 203.13C102.92 199.72 102.96 196.23 102.72 192.8C102.47 189.28 99.3903 187 95.8403 187.19C92.7803 187.35 90.6103 189.85 90.7703 193.53C90.8903 196.45 91.5603 199.34 91.8503 202.25C92.4503 208.2 92.5703 214.16 91.3603 220.06C91.1403 221.12 90.7303 222.15 90.3503 223.17C89.6603 225.04 88.5203 225.96 86.3203 226.31C75.7103 228 65.1803 227.19 54.7203 225.44C50.1203 224.67 45.6203 223.14 41.1703 221.7C40.0803 221.35 38.8103 220.12 38.5103 219.04C37.4903 215.34 36.4303 211.56 36.1903 207.76C35.8303 202 36.1503 196.2 36.1703 190.41C36.1703 188.81 36.2103 187.2 36.0903 185.61C35.8803 182.86 33.7103 179.97 31.3603 179.68C27.0003 179.14 24.8703 179.26 22.9103 182.9C21.9903 184.6 21.5303 186.73 21.4803 188.68C21.4003 192.45 21.9903 196.24 21.8803 200C21.7903 203.06 21.0703 206.1 20.6203 209.15C20.4103 210.55 19.8703 210.56 18.8503 209.68C13.3703 204.94 9.49033 199.2 7.36033 192.23C5.20033 185.15 4.45033 177.9 4.88033 170.57C5.24033 164.36 6.73033 158.34 8.70033 152.41C13.7603 137.16 22.2103 123.72 30.8103 110.34C33.0403 106.88 35.0803 103.3 37.0903 99.7C37.8803 98.28 38.2303 97.67 39.6403 99.29C40.9303 100.78 42.6703 101.96 44.4003 102.95C44.9903 103.29 46.1403 102.65 47.0303 102.45C46.7803 101.57 46.8103 100.2 46.2403 99.89C40.6003 96.76 38.9603 91.88 39.5603 85.82C40.0103 81.23 40.2503 76.61 42.2303 72.34C42.5003 71.75 42.9503 71.24 43.3203 70.7C43.7203 71.2 44.2203 71.66 44.5203 72.22C46.3203 75.56 48.8903 78.14 52.0403 80.22C52.7003 80.65 53.3003 81.58 53.4303 82.36C54.1503 86.66 54.7703 90.97 55.3003 95.3C55.4603 96.65 55.5803 97.92 57.1403 98.17C58.6003 98.4 59.2003 97.33 59.5703 96.11C59.9703 96.11 60.3703 96.13 60.7703 96.13V96.17ZM56.9703 210.42C61.3203 210.42 65.4703 209.41 69.4003 207.64C72.1303 206.41 74.4303 204.56 75.6203 201.66C77.0503 198.18 75.9603 195.06 72.5003 194.2C69.6503 193.49 68.9203 191.82 68.3903 189.31C67.7003 185.97 66.7603 182.65 65.5403 179.48C64.6303 177.11 62.4503 176.3 59.9203 176.61C57.4003 176.92 56.3003 178.79 55.8803 180.88C55.2903 183.82 55.1103 186.85 54.7903 189.84C54.6903 190.76 54.7603 191.69 54.6703 192.61C54.6403 192.87 54.3103 193.1 54.1203 193.35C54.0203 193.08 53.8503 192.81 53.8403 192.53C53.8003 191.94 53.8603 191.35 53.8403 190.76C53.7503 187.8 51.9603 186.12 49.0003 186.2C46.1003 186.28 43.7603 188.93 43.7303 192.48C43.6903 197.04 45.0803 201.27 47.3703 205.16C49.4903 208.76 52.6403 210.71 56.9603 210.43L56.9703 210.42ZM88.3003 184.8C88.3003 184.8 88.3003 184.76 88.3003 184.74C89.4803 184.74 90.6603 184.82 91.8303 184.72C94.6203 184.5 96.5303 182.9 97.5603 180.43C98.6303 177.86 98.8403 175.27 96.8703 172.85C93.4803 168.67 84.3503 169.33 81.0903 174.05C79.3003 176.64 79.8103 179.41 80.8503 181.99C81.8203 184.4 84.1103 184.91 86.5403 184.8C87.1303 184.77 87.7203 184.8 88.3003 184.8ZM54.6403 153.9C54.1403 151.62 53.8103 149.28 53.1103 147.06C52.0303 143.63 48.3203 141.66 44.6303 142.31C41.4603 142.86 39.2103 145.89 39.0503 149.45C38.9203 152.45 40.5703 154.74 41.8003 157.18C43.6103 160.77 45.9403 161.03 50.2203 160.27C53.0103 159.77 54.4203 157.33 54.6403 153.9ZM75.8103 98.84C78.6003 99.53 84.9603 94.11 85.4303 91.64C85.6103 90.71 85.2803 89.24 84.6203 88.68C83.3303 87.58 81.7403 86.61 80.1103 86.19C76.0903 85.16 74.0303 88.24 71.8103 90.72C70.4503 92.24 69.7903 94.06 70.8603 96.05C71.9103 98 73.5903 98.95 75.8103 98.84ZM39.8303 109.35C37.1803 109.35 35.0503 110.87 34.5803 113.13C34.0603 115.6 35.2403 118.51 37.4903 119.89C38.9203 120.76 40.4703 121.44 42.0003 122.11C43.9203 122.95 45.5903 122.44 47.0403 121C48.5303 119.52 49.1803 117.79 48.5503 115.74C47.7403 113.11 42.5503 109.36 39.8203 109.35H39.8303ZM24.3603 177.66C28.6703 177.4 31.5303 175.6 31.5003 172.52C31.4803 169.8 29.3403 167.59 26.5703 167.56C23.1103 167.53 19.9503 170.16 19.9203 173.08C19.8903 176.01 21.4803 177.64 24.3503 177.66H24.3603Z"
      fill="#405053" />
    <path
      d="M74.4001 25.36C74.4001 34.61 72.1701 43.44 69.0101 52.06C68.0601 54.66 66.9301 57.2 65.9601 59.79C65.4901 61.06 64.8601 61.39 63.5101 60.94C59.1301 59.51 56.3601 56.23 54.9401 52.25C51.7001 43.18 45.7201 36.62 37.9101 31.38C35.9201 30.04 33.9701 28.44 32.4901 26.58C30.0801 23.54 30.2101 19.6 32.9101 16.88C40.3101 9.38999 49.0301 4.46999 59.9001 4.80999C65.6701 4.98999 71.1701 8.39999 73.0201 14.46C73.5101 16.07 74.1701 17.66 74.3601 19.3C74.5901 21.29 74.4201 23.33 74.4201 25.35L74.4001 25.36ZM42.8801 28.11C50.6101 27.97 56.6601 25.21 62.0101 20.95C64.4601 19 66.4801 16.47 68.5301 14.06C69.3201 13.13 69.4701 11.74 68.1301 11.01C66.9201 10.35 66.2001 11.27 65.4501 12.18C58.7701 20.36 50.6501 25.41 39.5501 24.11C38.8301 24.03 37.5401 24.83 37.3101 25.5C36.8901 26.7 37.7401 27.48 39.0901 27.61C40.5801 27.76 42.0701 28 42.8801 28.11Z"
      fill="#405053" />
    <path
      d="M26.55 228.94C28.92 228.01 29.65 226.26 27.94 224.89C23.85 221.63 23.59 217.21 24.7 212.94C26.4 206.4 26.92 199.94 26.02 193.26C25.72 191.06 26.09 188.73 26.37 186.49C26.56 184.91 27.53 183.91 29.32 184.05C31.08 184.18 31.59 185.39 31.59 186.84C31.59 189.7 31.61 192.56 31.37 195.4C30.76 202.85 31.31 210.2 33.09 217.44C34.03 221.25 35.47 224.87 38.89 227.2C40.41 228.23 42.05 229.17 44.03 228C44.43 227.76 45.15 227.92 45.68 228.07C58.24 231.51 70.99 232.52 83.94 231.35C87.7 231.01 91.5 231.07 95.26 230.72C96.98 230.56 98.65 229.82 100.35 229.37C100.65 229.29 100.98 229.3 101.29 229.27C101.2 229.55 101.19 229.93 101 230.08C98.1 232.33 95 234.59 91.14 233.5C86.09 232.07 81.52 232.94 77.01 235.24C74.84 236.35 72.65 237.43 70.41 238.39C67.41 239.68 64.23 239.79 61.32 238.39C56.76 236.19 51.92 236.04 47.05 235.75C43.69 235.55 40.34 235.26 37 234.83C32.89 234.3 29.23 232.71 26.31 229.65C26.39 229.42 26.47 229.19 26.55 228.95V228.94Z"
      fill="#65E334" />
    <path
      d="M110.52 146.87C102.15 146.4 94.0601 144.7 86.4501 141.05C85.8501 140.76 85.1801 140.49 84.7201 140.04C83.9401 139.26 83.3001 138.34 82.6001 137.48C83.5801 136.89 84.4801 136.08 85.5401 135.76C87.7001 135.11 89.9701 134.82 92.1501 134.23C94.6001 133.57 96.1401 132.19 96.5001 129.36C96.6901 127.9 97.8501 126.29 99.0401 125.3C100.85 123.8 102.63 124.68 103.06 127.03C103.3 128.35 103.2 129.72 103.43 131.04C104.11 134.92 106.55 135.89 109.74 133.65C112.19 131.93 114.01 129.75 114.26 126.7C114.52 123.46 114.45 120.19 114.57 116.93C114.64 115.1 114.54 113.21 115.02 111.49C115.26 110.65 116.63 109.69 117.55 109.63C118.29 109.58 119.6 110.67 119.81 111.48C120.4 113.73 120.7 116.09 120.85 118.42C121.19 123.7 121.49 128.99 121.57 134.28C121.61 136.68 121.32 139.14 120.76 141.47C119.88 145.12 117.28 146.86 113.54 146.88C112.53 146.88 111.52 146.88 110.51 146.88L110.52 146.87Z"
      fill="#65E334" />
    <path
      d="M120.55 221.66C119.29 221.64 118.03 221.66 116.77 221.58C116.3 221.55 115.85 221.31 115.39 221.17C115.68 220.81 115.91 220.38 116.26 220.12C122.97 215.03 126.94 208.04 129.34 200.23C131.05 194.69 131.56 188.87 131.15 183.02C131.03 181.35 130.88 179.6 131.24 178C131.48 176.95 132.61 176.1 133.35 175.16C134.18 175.89 135.37 176.48 135.75 177.39C136.45 179.06 137.02 180.93 137.02 182.72C137.03 190.03 137.09 197.36 136.59 204.64C135.99 213.39 129.42 220.22 120.91 221.63C120.78 221.56 120.65 221.56 120.52 221.65L120.55 221.66Z"
      fill="#65E334" />
    <path
      d="M67.4804 74.25C67.5004 69.26 65.8404 66.74 61.8303 65.7C57.2803 64.53 52.9303 67.75 52.6903 72.45C52.6603 73.07 52.4303 73.67 52.3003 74.28C51.7803 73.9 51.1503 73.61 50.7603 73.12C45.1103 66.2 45.8803 61.83 50.3803 54.86C51.2703 53.48 51.6503 54.12 52.1803 55.11C54.3303 59.15 57.2803 62.4 61.5603 64.23C65.6903 66 69.7203 65.59 73.6803 63.6C74.8403 63.02 75.4404 62.16 74.9104 60.97C74.3704 59.75 73.3104 59.68 72.1504 60.24C71.7504 60.43 71.2403 60.42 70.7803 60.5C70.9403 60.05 71.0803 59.6 71.2503 59.16C71.6503 58.14 72.0303 57.12 72.4704 56.12C72.8603 55.23 73.3103 54.37 73.7403 53.5C74.3803 54.26 75.0904 54.97 75.6604 55.78C81.9504 64.63 77.2003 72.43 70.7903 77.04C69.9904 77.62 68.7903 77.63 67.7703 77.91C67.6703 77.02 67.5604 76.13 67.4804 75.24C67.4504 74.91 67.4804 74.57 67.4804 74.23V74.25Z"
      fill="#405053" />
    <path
      d="M12.5799 126.3C12.3899 130.24 11.6899 133.95 9.80992 137.49C8.30992 140.3 7.22991 143.33 5.95991 146.26C5.83991 146.54 5.61991 146.78 5.43991 147.04C5.38991 146.82 5.30992 146.6 5.29992 146.37C4.94992 139.56 4.55991 132.76 4.31991 125.94C4.26991 124.46 4.69991 122.95 4.99991 121.47C5.42991 119.4 6.91991 118.62 8.86991 118.54C10.9299 118.45 11.6499 119.96 12.0099 121.56C12.3599 123.1 12.3999 124.71 12.5799 126.29V126.3Z"
      fill="#65E334" />
    <path
      d="M98.8702 196.71C98.6002 199.82 98.2002 202.33 98.2202 204.84C98.2302 206.7 98.6202 208.61 99.1302 210.41C99.8602 212.99 101.11 215.43 101.68 218.04C102.73 222.85 99.5102 226.56 94.6002 226.5C94.3902 226.5 93.9402 225.88 94.0102 225.7C97.5002 216.39 96.9802 206.89 95.3902 197.33C95.1702 196.01 95.1302 194.64 95.2402 193.31C95.2902 192.73 95.9802 191.7 96.2702 191.73C96.9702 191.82 98.0002 192.28 98.1902 192.83C98.6602 194.23 98.7402 195.77 98.8902 196.69L98.8702 196.71Z"
      fill="#65E334" />
    <path
      d="M60.77 96.17C60.37 96.17 59.97 96.15 59.57 96.15C58.76 90.35 57.92 84.56 57.16 78.76C56.91 76.86 56.74 74.93 56.72 73.01C56.7 70.88 57.89 69.77 59.97 69.72C62.09 69.67 63.4 70.7 63.41 72.81C63.42 75.06 63.13 77.31 62.97 79.56C62.88 79.7 62.86 79.84 62.93 80C62.22 85.39 61.5 90.79 60.79 96.18L60.77 96.17Z"
      fill="#65E334" />
    <path
      d="M20.9002 224.15C17.5402 220.51 14.7202 216.56 13.4102 211.69C13.7002 211.74 14.0002 211.8 14.2902 211.85C19.1302 214.44 20.2802 219.07 20.9502 223.96C20.9502 224.03 20.8902 224.11 20.8602 224.19L20.8902 224.15H20.9002Z"
      fill="#65E334" />
    <path
      d="M26.5503 228.94C26.4703 229.17 26.3903 229.4 26.3103 229.64C26.2103 229.46 26.1103 229.28 26.0103 229.09C26.1903 229.04 26.3703 228.99 26.5403 228.94H26.5503Z"
      fill="#405053" />
    <path d="M120.55 221.66C120.68 221.57 120.81 221.56 120.94 221.64C120.81 221.64 120.68 221.65 120.55 221.66Z"
      fill="#405053" />
    <path
      d="M20.8701 224.19L21.1801 224.27C21.1801 224.27 21.1001 224.29 21.0701 224.27C21.0101 224.24 20.9601 224.19 20.9001 224.14L20.8701 224.18V224.19Z"
      fill="#65E334" />
    <path
      d="M62.9099 79.98C62.8499 79.83 62.8599 79.68 62.9499 79.54C62.9899 79.65 63.0299 79.75 63.0499 79.86C63.0499 79.89 62.9599 79.94 62.9099 79.97V79.98Z"
      fill="#405053" />
    <path
      d="M56.9701 210.41C52.6601 210.69 49.5001 208.75 47.3801 205.14C45.0901 201.25 43.7001 197.02 43.7401 192.46C43.7701 188.91 46.1101 186.26 49.0101 186.18C51.9701 186.1 53.7601 187.78 53.8501 190.74C53.8701 191.33 53.8101 191.92 53.8501 192.51C53.8701 192.79 54.0301 193.06 54.1301 193.33C54.3201 193.08 54.6501 192.85 54.6801 192.59C54.7701 191.67 54.7001 190.74 54.8001 189.82C55.1201 186.83 55.3001 183.8 55.8901 180.86C56.3101 178.76 57.4101 176.89 59.9301 176.59C62.4601 176.28 64.6401 177.1 65.5501 179.46C66.7701 182.64 67.7101 185.96 68.4001 189.29C68.9201 191.8 69.6601 193.47 72.5101 194.18C75.9701 195.04 77.0601 198.16 75.6301 201.64C74.4401 204.54 72.1401 206.39 69.4101 207.62C65.4801 209.4 61.3301 210.41 56.9801 210.4L56.9701 210.41ZM57.3801 206.4C57.4201 206.59 57.4601 206.77 57.5001 206.96C60.9601 206.02 64.5301 205.35 67.8301 204.01C69.5301 203.32 70.8901 201.55 72.1301 200.04C72.9901 198.99 72.4401 197.83 71.0501 197.61C66.7501 196.95 65.4201 194.01 64.8101 190.19C64.3701 187.39 63.5501 184.63 62.6801 181.92C62.4501 181.22 61.3701 180.8 60.6801 180.26C60.2201 180.91 59.4701 181.52 59.3601 182.23C58.9601 184.88 58.8701 187.58 58.4601 190.23C58.1201 192.44 57.7501 194.71 56.9001 196.74C56.4901 197.72 54.9401 198.76 53.8801 198.78C53.0101 198.8 51.7001 197.55 51.2901 196.57C50.6301 195 50.6001 193.18 50.2201 191.49C50.1101 190.99 49.7101 190.55 49.4501 190.09C48.9201 190.42 48.1601 190.64 47.9201 191.12C47.6001 191.75 47.4601 192.64 47.6301 193.33C48.4001 196.4 49.0401 199.56 50.2401 202.47C51.4701 205.45 53.9401 206.99 57.3901 206.41L57.3801 206.4Z"
      fill="#010201" />
    <path
      d="M88.2999 184.79C87.7099 184.79 87.1199 184.77 86.5399 184.79C84.1099 184.9 81.8199 184.39 80.8499 181.98C79.8099 179.4 79.2999 176.63 81.0899 174.04C84.3499 169.32 93.4799 168.66 96.8699 172.84C98.8399 175.27 98.6299 177.85 97.5599 180.42C96.5299 182.89 94.6199 184.49 91.8299 184.71C90.6599 184.8 89.4799 184.73 88.2999 184.73C88.2999 184.75 88.2999 184.77 88.2999 184.79ZM88.2499 181.62C88.2499 181.62 88.2499 181.67 88.2499 181.7C89.3399 181.63 90.4399 181.67 91.4999 181.46C93.9099 180.98 95.2899 178.81 94.8499 176.38C94.4899 174.35 92.7099 173.04 90.3299 173.41C88.6099 173.67 86.8999 174.22 85.2999 174.9C83.4599 175.68 82.9999 177.29 83.4899 179.57C83.8899 181.42 85.2499 181.59 86.7399 181.62C87.2399 181.62 87.7499 181.62 88.2499 181.62Z"
      fill="#010201" />
    <path
      d="M54.6403 153.89C54.4203 157.31 53.0103 159.76 50.2203 160.26C45.9403 161.03 43.6103 160.76 41.8003 157.17C40.5603 154.72 38.9103 152.44 39.0503 149.44C39.2103 145.88 41.4503 142.85 44.6303 142.3C48.3303 141.66 52.0303 143.63 53.1103 147.05C53.8103 149.27 54.1403 151.61 54.6403 153.89ZM51.4003 153.84C50.8703 151.82 50.5203 149.74 49.7703 147.81C49.0303 145.93 46.9203 145.22 44.8803 145.79C43.2103 146.26 41.7603 148.34 42.3603 150.16C43.0903 152.35 44.1803 154.47 45.4403 156.41C46.4403 157.97 48.1103 157.39 49.5703 156.87C51.0003 156.37 51.4403 155.3 51.4103 153.83L51.4003 153.84Z"
      fill="#010201" />
    <path
      d="M75.8199 98.83C73.5999 98.94 71.9199 97.99 70.8699 96.04C69.7899 94.05 70.4599 92.24 71.8199 90.71C74.0399 88.23 76.0999 85.15 80.1199 86.18C81.7399 86.6 83.3399 87.57 84.6299 88.67C85.2899 89.23 85.6199 90.7 85.4399 91.63C84.9699 94.1 78.6099 99.52 75.8199 98.83ZM82.1599 91.01C81.7599 90.65 81.4599 90.16 81.0599 90.07C79.9899 89.82 78.6999 89.34 77.8199 89.71C76.6599 90.2 75.6899 91.32 74.8599 92.34C74.3299 92.99 72.8399 93.81 74.1099 94.75C74.8699 95.31 76.4299 95.5 77.2499 95.09C78.7899 94.32 80.0599 93.01 81.4299 91.91C81.6799 91.71 81.8499 91.4 82.1599 91.01Z"
      fill="#010201" />
    <path
      d="M39.8403 109.35C42.5703 109.35 47.7603 113.1 48.5703 115.74C49.2003 117.79 48.5503 119.53 47.0603 121C45.6103 122.44 43.9303 122.95 42.0203 122.11C40.4903 121.44 38.9403 120.75 37.5103 119.89C35.2503 118.52 34.0803 115.61 34.6003 113.13C35.0703 110.87 37.2003 109.34 39.8503 109.35H39.8403ZM46.3803 117.22C44.1003 115.49 42.4203 114.03 40.5503 112.89C40.0203 112.57 38.6103 112.89 38.2003 113.41C37.8003 113.9 37.8503 115.45 38.2803 115.78C39.9003 117.01 41.6903 118.08 43.5603 118.87C44.0403 119.07 45.0403 118.04 46.3803 117.22Z"
      fill="#010201" />
    <path
      d="M24.3601 177.66C21.4901 177.64 19.9001 176.01 19.9301 173.08C19.9601 170.16 23.1201 167.54 26.5801 167.56C29.3401 167.58 31.4801 169.8 31.5101 172.52C31.5401 175.6 28.6801 177.4 24.3701 177.66H24.3601ZM23.8701 175.08C26.9001 175.06 28.7301 173.84 28.6701 172.36C28.6101 170.89 27.8201 170.31 26.3901 170.38C24.1801 170.48 22.3801 171.63 22.5901 173.16C22.7001 173.97 23.5701 174.67 23.8601 175.08H23.8701Z"
      fill="#010201" />
    <path
      d="M42.8801 28.11C42.0701 28 40.5901 27.76 39.0901 27.61C37.7401 27.48 36.8901 26.7 37.3101 25.5C37.5401 24.83 38.8301 24.03 39.5501 24.11C50.6401 25.41 58.7601 20.36 65.4501 12.18C66.2001 11.27 66.9201 10.35 68.1301 11.01C69.4701 11.74 69.3201 13.14 68.5301 14.06C66.4801 16.47 64.4601 18.99 62.0101 20.95C56.6601 25.22 50.6101 27.97 42.8801 28.11Z"
      fill="#010201" />
    <path
      d="M50.2302 202.46C49.0302 199.55 48.3902 196.4 47.6202 193.32C47.4502 192.64 47.5902 191.75 47.9102 191.11C48.1502 190.63 48.9102 190.42 49.4402 190.08C49.7002 190.55 50.1002 190.98 50.2102 191.48C50.5902 193.17 50.6202 194.99 51.2802 196.56C51.6902 197.54 53.0002 198.8 53.8702 198.77C54.9302 198.74 56.4702 197.71 56.8902 196.73C57.7402 194.7 58.1102 192.42 58.4502 190.22C58.8602 187.57 58.9502 184.87 59.3502 182.22C59.4602 181.51 60.2102 180.9 60.6702 180.25C61.3602 180.8 62.4502 181.22 62.6702 181.91C63.5502 184.61 64.3602 187.37 64.8002 190.18C65.4102 194 66.7302 196.94 71.0402 197.6C72.4302 197.81 72.9702 198.98 72.1202 200.03C70.8902 201.54 69.5202 203.31 67.8202 204C64.5202 205.34 60.9502 206 57.4902 206.95C54.2102 207.32 51.4502 205.41 50.2302 202.45V202.46Z"
      fill="#65E334" />
    <path
      d="M88.2401 181.62C87.7401 181.62 87.2301 181.62 86.7301 181.62C85.2401 181.59 83.8801 181.43 83.4801 179.57C82.9901 177.29 83.4501 175.68 85.2901 174.9C86.8901 174.22 88.6101 173.67 90.3201 173.41C92.7001 173.04 94.4801 174.35 94.8401 176.38C95.2801 178.81 93.8901 180.98 91.4901 181.46C90.4301 181.67 89.3201 181.63 88.2401 181.7C88.2401 181.67 88.2401 181.65 88.2401 181.62Z"
      fill="#65E334" />
    <path
      d="M51.4 153.84C51.43 155.31 50.99 156.38 49.56 156.88C48.1 157.39 46.43 157.97 45.43 156.42C44.18 154.47 43.08 152.35 42.35 150.17C41.75 148.36 43.2 146.27 44.87 145.8C46.91 145.22 49.02 145.93 49.76 147.82C50.52 149.75 50.87 151.83 51.39 153.85L51.4 153.84Z"
      fill="#65E334" />
    <path
      d="M82.1602 91.01C81.8502 91.4 81.6802 91.7 81.4302 91.91C80.0602 93.02 78.7902 94.33 77.2502 95.09C76.4302 95.5 74.8602 95.31 74.1102 94.75C72.8302 93.8 74.3302 92.98 74.8602 92.34C75.6902 91.31 76.6602 90.19 77.8202 89.71C78.7002 89.34 79.9902 89.83 81.0602 90.07C81.4602 90.16 81.7602 90.66 82.1602 91.01Z"
      fill="#65E334" />
    <path
      d="M46.37 117.22C45.02 118.04 44.02 119.08 43.55 118.87C41.68 118.08 39.89 117.01 38.27 115.78C37.84 115.45 37.8 113.9 38.19 113.41C38.6 112.9 40.01 112.57 40.54 112.89C42.41 114.03 44.09 115.48 46.37 117.22Z"
      fill="#65E334" />
    <path
      d="M23.8703 175.07C23.5803 174.66 22.7103 173.95 22.6003 173.15C22.3903 171.62 24.1803 170.47 26.4003 170.37C27.8303 170.31 28.6203 170.89 28.6803 172.35C28.7403 173.83 26.9003 175.06 23.8803 175.07H23.8703Z"
      fill="#65E334" />
  </g>
  <defs>
    <clipPath id="clip0_131_773">
      <rect width="142.27" height="244" fill="white" />
    </clipPath>
  </defs>
</svg>