<svg width="1190" height="810" viewBox="0 0 1160 765" fill="none" xmlns="http://www.w3.org/2000/svg">
  <path d="M0 766.5V0H1160.5V766.5H0Z" fill="#FF90B2" />
  <mask id="mask0_128_1211" style="mask-type:alpha" maskUnits="userSpaceOnUse" x="72" y="48" width="1016" height="671">
    <path d="M73 718L91.349 49H1066.9L1087 718H73Z" fill="#FF90B2" stroke="black" />
  </mask>
  <g mask="url(#mask0_128_1211)">
    <path
      d="M586.208 233.746C586.208 233.746 585.305 233.746 584.911 233.746C581.349 233.759 577.799 233.746 574.237 233.771C573.728 233.771 573.55 233.619 573.575 233.11C573.651 230.972 574.046 228.899 574.796 226.901C576.081 223.454 578.104 220.527 580.954 218.123C583.422 216.036 586.209 214.662 589.313 213.861C591.437 213.314 593.613 213.25 595.788 213.403C597.659 213.543 599.503 213.81 601.234 214.599C602.061 214.98 602.926 215.26 603.867 215.629C603.765 214.446 603.575 213.428 603.613 212.423C603.702 210.21 603.816 207.996 604.071 205.795C604.465 202.182 605.534 198.747 607.086 195.464C607.519 194.548 607.951 193.619 608.371 192.691C609.529 190.96 610.674 189.243 611.831 187.513C612.353 186.737 612.862 185.961 613.371 185.185C613.702 185.019 614.071 184.905 614.35 184.676C616.221 183.162 618.078 181.622 619.936 180.096C620.292 179.803 620.61 179.485 620.941 179.167C622.391 178.391 623.841 177.602 625.279 176.826C625.546 176.775 625.839 176.762 626.093 176.66C627.391 176.126 628.65 175.477 629.986 175.032C633.141 174.002 636.373 173.378 639.694 173.238C640.19 173.213 640.877 173.327 641.157 172.627C641.513 171.75 641.831 170.859 642.251 170.007C643.421 167.615 644.553 165.198 645.838 162.869C646.793 161.139 647.976 159.549 649.057 157.882C650.711 155.77 652.365 153.658 654.019 151.546C655.673 149.969 657.25 148.302 658.993 146.852C661.652 144.638 664.439 142.577 667.174 140.452C668.866 139.473 670.571 138.493 672.263 137.514C672.352 137.488 672.454 137.475 672.543 137.425C677.314 134.867 682.352 132.959 687.606 131.674C690.723 130.911 693.942 130.516 697.135 130.096C699.234 129.817 701.372 129.766 703.484 129.626C705.214 129.727 706.957 129.804 708.687 129.944C710.621 130.109 712.568 130.275 714.489 130.567C716.41 130.873 718.318 131.331 720.226 131.725C721.244 131.941 722.262 132.17 723.28 132.386C723.445 132.501 723.598 132.679 723.776 132.73C727.694 133.786 731.371 135.427 734.972 137.259C738.419 139.028 741.727 141.05 744.819 143.417C747.732 145.656 750.48 148.06 752.974 150.77C755.06 153.035 757.045 155.376 758.864 157.857C762.541 162.869 765.353 168.315 767.439 174.129C768.533 177.169 769.348 180.325 770.047 183.48C770.62 186.037 770.9 188.658 771.192 191.266C771.281 192.067 771.51 192.284 772.261 192.22C773.737 192.093 775.225 191.876 776.701 191.94C778.902 192.029 781.103 192.195 783.266 192.551C785.327 192.894 787.388 193.39 789.373 194.052C792.21 194.993 794.92 196.24 797.362 197.996C798.965 199.141 800.645 200.21 802.095 201.533C804.691 203.874 807.031 206.444 808.876 209.459C810.734 212.5 812.235 215.693 813.227 219.102C813.634 220.515 813.902 221.99 814.118 223.441C814.372 225.158 814.589 226.876 814.678 228.606C814.741 229.853 814.589 231.112 814.55 232.359C814.512 233.631 814.461 233.695 813.164 233.695C801.93 233.695 790.683 233.695 779.449 233.695C778.711 233.695 777.973 233.797 777.223 233.86C777.007 233.797 776.79 233.695 776.574 233.695C774.895 233.695 773.215 233.708 771.536 233.721C771.485 233.721 771.434 233.721 771.383 233.721C771.078 233.708 770.773 233.682 770.455 233.682C741.053 233.682 711.664 233.682 682.263 233.682C679.642 233.682 677.008 233.708 674.388 233.721C673.077 233.721 671.779 233.695 670.469 233.708C670.151 233.708 669.833 233.81 669.528 233.86C669.26 233.81 669.006 233.708 668.739 233.708C667.149 233.695 665.571 233.708 663.981 233.708C663.739 233.708 663.497 233.784 663.268 233.835C661.729 233.797 660.189 233.759 658.637 233.721L658.319 233.657C658.319 233.657 658.217 233.657 658.166 233.657C658.014 233.657 657.861 233.657 657.708 233.657H657.556C656.78 233.657 656.016 233.657 655.24 233.657C655.189 233.657 655.139 233.657 655.075 233.657C654.922 233.657 654.77 233.682 654.617 233.682C644.134 233.682 633.663 233.682 623.18 233.682C620.864 233.682 618.549 233.721 616.233 233.733C614.121 233.721 609.91 233.67 609.91 233.67H586.183L586.208 233.746Z"
      fill="#FFABC8" />
    <path
      d="M33.6357 409.633C33.6357 409.633 32.7324 409.633 32.338 409.633C28.7758 409.646 25.2262 409.633 21.6639 409.659C21.155 409.659 20.9769 409.506 21.0024 408.997C21.0787 406.86 21.4731 404.786 22.2237 402.789C23.5087 399.341 25.5315 396.415 28.3814 394.01C30.8495 391.924 33.6357 390.55 36.74 389.748C38.8646 389.201 41.0402 389.138 43.2157 389.29C45.0859 389.43 46.9306 389.697 48.6609 390.486C49.4878 390.868 50.353 391.148 51.2944 391.517C51.1927 390.333 51.0018 389.316 51.04 388.311C51.129 386.097 51.2435 383.883 51.498 381.682C51.8924 378.069 52.9611 374.634 54.5132 371.352C54.9458 370.436 55.3783 369.507 55.7982 368.578C56.9559 366.848 58.1009 365.13 59.2587 363.4C59.7803 362.624 60.2892 361.848 60.7981 361.072C61.1289 360.907 61.4978 360.792 61.7777 360.563C63.6479 359.049 65.5054 357.51 67.3628 355.983C67.7191 355.69 68.0371 355.372 68.3679 355.054C69.8183 354.278 71.2686 353.489 72.7063 352.713C72.9734 352.662 73.266 352.65 73.5205 352.548C74.8182 352.014 76.0777 351.365 77.4136 350.919C80.5687 349.889 83.8002 349.265 87.1208 349.126C87.6169 349.1 88.3039 349.215 88.5838 348.515C88.9401 347.637 89.2581 346.746 89.678 345.894C90.8484 343.502 91.9807 341.085 93.2657 338.757C94.2199 337.027 95.4031 335.436 96.4845 333.77C98.1384 331.658 99.7923 329.546 101.446 327.434C103.1 325.856 104.678 324.19 106.421 322.739C109.08 320.526 111.866 318.465 114.601 316.34C116.293 315.36 117.998 314.381 119.69 313.401C119.779 313.376 119.881 313.363 119.97 313.312C124.741 310.755 129.779 308.846 135.033 307.561C138.15 306.798 141.369 306.404 144.562 305.984C146.662 305.704 148.799 305.653 150.911 305.513C152.641 305.615 154.384 305.691 156.114 305.831C158.048 305.997 159.995 306.162 161.916 306.455C163.837 306.76 165.745 307.218 167.654 307.612C168.671 307.829 169.689 308.058 170.707 308.274C170.872 308.388 171.025 308.566 171.203 308.617C175.122 309.673 178.798 311.315 182.399 313.147C185.847 314.915 189.155 316.938 192.246 319.304C195.16 321.543 197.908 323.948 200.401 326.658C202.488 328.922 204.472 331.263 206.292 333.744C209.968 338.757 212.78 344.202 214.867 350.016C215.961 353.057 216.775 356.212 217.475 359.367C218.047 361.924 218.327 364.545 218.62 367.153C218.709 367.955 218.938 368.171 219.688 368.107C221.164 367.98 222.653 367.764 224.128 367.827C226.329 367.917 228.53 368.082 230.693 368.438C232.754 368.782 234.815 369.278 236.8 369.939C239.637 370.881 242.347 372.128 244.79 373.883C246.393 375.028 248.072 376.097 249.522 377.42C252.118 379.761 254.459 382.331 256.303 385.346C258.161 388.387 259.662 391.58 260.655 394.99C261.062 396.402 261.329 397.878 261.545 399.328C261.8 401.046 262.016 402.763 262.105 404.494C262.168 405.74 262.016 407 261.978 408.247C261.939 409.519 261.889 409.582 260.591 409.582C249.357 409.582 238.11 409.582 226.877 409.582C226.139 409.582 225.401 409.684 224.65 409.748C224.434 409.684 224.218 409.582 224.001 409.582C222.322 409.582 220.643 409.595 218.963 409.608C218.912 409.608 218.861 409.608 218.81 409.608C218.505 409.595 218.2 409.57 217.882 409.57C188.48 409.57 159.091 409.57 129.69 409.57C127.069 409.57 124.436 409.595 121.815 409.608C120.504 409.608 119.207 409.582 117.896 409.595C117.578 409.595 117.26 409.697 116.955 409.748C116.688 409.697 116.433 409.595 116.166 409.595C114.576 409.582 112.998 409.595 111.408 409.595C111.166 409.595 110.924 409.672 110.695 409.722C109.156 409.684 107.617 409.646 106.064 409.608L105.746 409.544C105.746 409.544 105.645 409.544 105.594 409.544C105.441 409.544 105.288 409.544 105.136 409.544H104.983C104.207 409.544 103.444 409.544 102.668 409.544C102.617 409.544 102.566 409.544 102.502 409.544C102.349 409.544 102.197 409.57 102.044 409.57C91.5609 409.57 81.0903 409.57 70.6071 409.57C68.2916 409.57 65.9761 409.608 63.6606 409.621C61.5487 409.608 57.3376 409.557 57.3376 409.557H33.6357V409.633Z"
      fill="#FFABC8" />
    <path
      d="M912.132 108.328C912.132 108.328 911.228 108.328 910.834 108.328C907.272 108.341 903.722 108.328 900.16 108.354C899.651 108.354 899.473 108.201 899.498 107.692C899.575 105.555 899.969 103.481 900.72 101.484C902.005 98.0359 904.028 95.1098 906.877 92.7053C909.346 90.6188 912.132 89.2448 915.236 88.4432C917.361 87.8962 919.536 87.8326 921.712 87.9852C923.582 88.1252 925.427 88.3924 927.157 89.1811C927.984 89.5628 928.849 89.8427 929.791 90.2117C929.689 89.0285 929.498 88.0107 929.536 87.0056C929.625 84.7919 929.74 82.5782 929.994 80.3772C930.388 76.7641 931.457 73.329 933.009 70.0466C933.442 69.1306 933.874 68.2019 934.294 67.2731C935.452 65.5429 936.597 63.8254 937.755 62.0951C938.276 61.3191 938.785 60.543 939.294 59.7669C939.625 59.6015 939.994 59.487 940.274 59.258C942.144 57.7441 944.001 56.2046 945.859 54.678C946.215 54.3853 946.533 54.0673 946.864 53.7492C948.314 52.9731 949.765 52.1844 951.202 51.4083C951.47 51.3574 951.762 51.3447 952.017 51.2429C953.314 50.7086 954.574 50.0597 955.91 49.6144C959.065 48.5839 962.296 47.9605 965.617 47.8206C966.113 47.7951 966.8 47.9096 967.08 47.2099C967.436 46.3321 967.754 45.4415 968.174 44.5891C969.344 42.1973 970.477 39.78 971.762 37.4518C972.716 35.7216 973.899 34.1313 974.981 32.4646C976.634 30.3527 978.288 28.2408 979.942 26.1288C981.596 24.5513 983.174 22.8846 984.917 21.4343C987.576 19.2206 990.362 17.1595 993.097 15.0349C994.789 14.0553 996.494 13.0757 998.186 12.096C998.275 12.0706 998.377 12.0579 998.466 12.007C1003.24 9.44976 1008.28 7.5414 1013.53 6.25644C1016.65 5.49309 1019.87 5.0987 1023.06 4.67886C1025.16 4.39896 1027.3 4.34808 1029.41 4.20813C1031.14 4.30991 1032.88 4.38624 1034.61 4.52619C1036.54 4.69158 1038.49 4.85697 1040.41 5.14959C1042.33 5.45493 1044.24 5.91293 1046.15 6.30733C1047.17 6.52361 1048.19 6.75261 1049.2 6.96889C1049.37 7.0834 1049.52 7.26151 1049.7 7.3124C1053.62 8.36836 1057.29 10.0095 1060.9 11.8416C1064.34 13.61 1067.65 15.6329 1070.74 17.9992C1073.66 20.2384 1076.4 22.6429 1078.9 25.3528C1080.98 27.6174 1082.97 29.9583 1084.79 32.4392C1088.46 37.4518 1091.28 42.897 1093.36 48.7111C1094.46 51.7518 1095.27 54.9069 1095.97 58.0621C1096.54 60.6193 1096.82 63.2401 1097.12 65.8482C1097.2 66.6497 1097.43 66.866 1098.18 66.8024C1099.66 66.6752 1101.15 66.4589 1102.62 66.5225C1104.83 66.6116 1107.03 66.777 1109.19 67.1332C1111.25 67.4767 1113.31 67.9729 1115.3 68.6344C1118.13 69.5759 1120.84 70.8227 1123.29 72.5784C1124.89 73.7234 1126.57 74.7921 1128.02 76.1152C1130.61 78.4561 1132.95 81.0261 1134.8 84.0413C1136.66 87.0819 1138.16 90.2753 1139.15 93.6849C1139.56 95.0971 1139.82 96.5729 1140.04 98.0232C1140.3 99.7407 1140.51 101.458 1140.6 103.189C1140.66 104.435 1140.51 105.695 1140.47 106.942C1140.44 108.214 1140.38 108.277 1139.09 108.277C1127.85 108.277 1116.61 108.277 1105.37 108.277C1104.63 108.277 1103.9 108.379 1103.15 108.443C1102.93 108.379 1102.71 108.277 1102.5 108.277C1100.82 108.277 1099.14 108.29 1097.46 108.303C1097.41 108.303 1097.36 108.303 1097.31 108.303C1097 108.29 1096.7 108.265 1096.38 108.265C1066.98 108.265 1037.59 108.265 1008.19 108.265C1005.57 108.265 1002.93 108.29 1000.31 108.303C999 108.303 997.703 108.277 996.392 108.29C996.074 108.29 995.756 108.392 995.451 108.443C995.184 108.392 994.929 108.29 994.662 108.29C993.072 108.277 991.494 108.29 989.904 108.29C989.662 108.29 989.42 108.367 989.191 108.417C987.652 108.379 986.113 108.341 984.561 108.303L984.242 108.239C984.242 108.239 984.141 108.239 984.09 108.239C983.937 108.239 983.784 108.239 983.632 108.239H983.479C982.703 108.239 981.94 108.239 981.164 108.239C981.113 108.239 981.062 108.239 980.998 108.239C980.846 108.239 980.693 108.265 980.54 108.265C970.057 108.265 959.586 108.265 949.103 108.265C946.788 108.265 944.472 108.303 942.157 108.316C940.045 108.303 935.834 108.252 935.834 108.252H912.106L912.132 108.328Z"
      fill="#FFABC8" />
    <path
      d="M920.516 382.255C920.516 382.255 919.612 382.255 919.218 382.255C915.656 382.267 912.106 382.255 908.544 382.28C908.035 382.28 907.857 382.128 907.882 381.619C907.959 379.481 908.353 377.407 909.104 375.41C910.389 371.962 912.411 369.036 915.261 366.632C917.729 364.545 920.516 363.171 923.62 362.37C925.745 361.823 927.92 361.759 930.096 361.912C931.966 362.052 933.811 362.319 935.541 363.108C936.368 363.489 937.233 363.769 938.174 364.138C938.073 362.955 937.882 361.937 937.92 360.932C938.009 358.718 938.123 356.505 938.378 354.304C938.772 350.69 939.841 347.255 941.393 343.973C941.826 343.057 942.258 342.128 942.678 341.2C943.836 339.469 944.981 337.752 946.139 336.021C946.66 335.245 947.169 334.469 947.678 333.693C948.009 333.528 948.378 333.413 948.658 333.184C950.528 331.67 952.385 330.131 954.243 328.604C954.599 328.312 954.917 327.994 955.248 327.676C956.698 326.9 958.149 326.111 959.586 325.335C959.853 325.284 960.146 325.271 960.4 325.169C961.698 324.635 962.958 323.986 964.293 323.541C967.449 322.51 970.68 321.887 974.001 321.747C974.497 321.721 975.184 321.836 975.464 321.136C975.82 320.258 976.138 319.368 976.558 318.515C977.728 316.124 978.861 313.706 980.146 311.378C981.1 309.648 982.283 308.058 983.364 306.391C985.018 304.279 986.672 302.167 988.326 300.055C989.98 298.478 991.558 296.811 993.301 295.361C995.96 293.147 998.746 291.086 1001.48 288.961C1003.17 287.982 1004.88 287.002 1006.57 286.022C1006.66 285.997 1006.76 285.984 1006.85 285.933C1011.62 283.376 1016.66 281.468 1021.91 280.183C1025.03 279.419 1028.25 279.025 1031.44 278.605C1033.54 278.325 1035.68 278.274 1037.79 278.134C1039.52 278.236 1041.26 278.313 1042.99 278.453C1044.93 278.618 1046.87 278.783 1048.8 279.076C1050.72 279.381 1052.63 279.839 1054.53 280.234C1055.55 280.45 1056.57 280.679 1057.59 280.895C1057.75 281.01 1057.9 281.188 1058.08 281.239C1062 282.295 1065.68 283.936 1069.28 285.768C1072.73 287.536 1076.03 289.559 1079.13 291.926C1082.04 294.165 1084.79 296.569 1087.28 299.279C1089.37 301.544 1091.35 303.885 1093.17 306.366C1096.85 311.378 1099.66 316.823 1101.75 322.638C1102.84 325.678 1103.65 328.833 1104.35 331.988C1104.93 334.546 1105.21 337.167 1105.5 339.775C1105.59 340.576 1105.82 340.792 1106.57 340.729C1108.04 340.602 1109.53 340.385 1111.01 340.449C1113.21 340.538 1115.41 340.703 1117.57 341.06C1119.63 341.403 1121.7 341.899 1123.68 342.561C1126.52 343.502 1129.23 344.749 1131.67 346.505C1133.27 347.65 1134.95 348.718 1136.4 350.042C1139 352.382 1141.34 354.952 1143.18 357.968C1145.04 361.008 1146.54 364.202 1147.53 367.611C1147.94 369.023 1148.21 370.499 1148.42 371.95C1148.68 373.667 1148.9 375.385 1148.98 377.115C1149.05 378.362 1148.9 379.621 1148.86 380.868C1148.82 382.14 1148.77 382.204 1147.47 382.204C1136.24 382.204 1124.99 382.204 1113.76 382.204C1113.02 382.204 1112.28 382.306 1111.53 382.369C1111.31 382.306 1111.1 382.204 1110.88 382.204C1109.2 382.204 1107.52 382.217 1105.84 382.229C1105.79 382.229 1105.74 382.229 1105.69 382.229C1105.39 382.217 1105.08 382.191 1104.76 382.191C1075.36 382.191 1045.97 382.191 1016.57 382.191C1013.95 382.191 1011.32 382.217 1008.69 382.229C1007.38 382.229 1006.09 382.204 1004.78 382.217C1004.46 382.217 1004.14 382.318 1003.83 382.369C1003.57 382.318 1003.31 382.217 1003.05 382.217C1001.46 382.204 999.878 382.217 998.288 382.217C998.046 382.217 997.804 382.293 997.575 382.344C996.036 382.306 994.497 382.267 992.944 382.229L992.626 382.166C992.626 382.166 992.525 382.166 992.474 382.166C992.321 382.166 992.168 382.166 992.016 382.166H991.863C991.087 382.166 990.324 382.166 989.547 382.166C989.497 382.166 989.446 382.166 989.382 382.166C989.229 382.166 989.077 382.191 988.924 382.191C978.441 382.191 967.97 382.191 957.487 382.191C955.172 382.191 952.856 382.229 950.541 382.242C948.429 382.229 944.217 382.178 944.217 382.178H920.49L920.516 382.255Z"
      fill="#FFABC8" />
    <path
      d="M89.7417 175.732C89.7417 175.732 88.8384 175.732 88.444 175.732C84.8817 175.744 81.3322 175.732 77.7699 175.757C77.261 175.757 77.0829 175.605 77.1083 175.096C77.1846 172.958 77.579 170.884 78.3297 168.887C79.6146 165.439 81.6375 162.513 84.4873 160.109C86.9555 158.022 89.7417 156.648 92.8459 155.847C94.9706 155.3 97.1461 155.236 99.3217 155.389C101.192 155.529 103.037 155.796 104.767 156.585C105.594 156.966 106.459 157.246 107.4 157.615C107.299 156.432 107.108 155.414 107.146 154.409C107.235 152.195 107.349 149.982 107.604 147.781C107.998 144.167 109.067 140.732 110.619 137.45C111.052 136.534 111.484 135.605 111.904 134.677C113.062 132.946 114.207 131.229 115.365 129.498C115.886 128.722 116.395 127.946 116.904 127.17C117.235 127.005 117.604 126.89 117.884 126.661C119.754 125.147 121.611 123.608 123.469 122.081C123.825 121.789 124.143 121.471 124.474 121.153C125.924 120.377 127.375 119.588 128.812 118.812C129.079 118.761 129.372 118.748 129.626 118.646C130.924 118.112 132.184 117.463 133.52 117.018C136.675 115.987 139.906 115.364 143.227 115.224C143.723 115.198 144.41 115.313 144.69 114.613C145.046 113.735 145.364 112.845 145.784 111.992C146.954 109.601 148.087 107.183 149.372 104.855C150.326 103.125 151.509 101.535 152.59 99.868C154.244 97.756 155.898 95.6441 157.552 93.5322C159.206 91.9546 160.784 90.288 162.527 88.8376C165.186 86.6239 167.972 84.5629 170.707 82.4383C172.399 81.4586 174.104 80.479 175.796 79.4994C175.885 79.4739 175.987 79.4612 176.076 79.4103C180.847 76.8531 185.885 74.9448 191.139 73.6598C194.256 72.8964 197.475 72.5021 200.668 72.0822C202.768 71.8023 204.905 71.7514 207.017 71.6115C208.747 71.7133 210.49 71.7896 212.22 71.9295C214.154 72.0949 216.101 72.2603 218.022 72.5529C219.943 72.8583 221.851 73.3163 223.76 73.7107C224.777 73.927 225.795 74.156 226.813 74.3722C226.978 74.4867 227.131 74.6649 227.309 74.7158C231.228 75.7717 234.904 77.4129 238.505 79.2449C241.953 81.0133 245.26 83.0362 248.352 85.4026C251.265 87.6417 254.014 90.0463 256.507 92.7561C258.594 95.0207 260.578 97.3617 262.398 99.8425C266.074 104.855 268.886 110.3 270.972 116.114C272.067 119.155 272.881 122.31 273.581 125.465C274.153 128.023 274.433 130.643 274.726 133.252C274.815 134.053 275.044 134.269 275.794 134.206C277.27 134.079 278.759 133.862 280.234 133.926C282.435 134.015 284.636 134.18 286.799 134.537C288.86 134.88 290.921 135.376 292.906 136.038C295.743 136.979 298.453 138.226 300.896 139.982C302.499 141.127 304.178 142.195 305.628 143.519C308.224 145.86 310.565 148.429 312.409 151.445C314.267 154.485 315.768 157.679 316.76 161.088C317.168 162.5 317.435 163.976 317.651 165.427C317.905 167.144 318.122 168.862 318.211 170.592C318.274 171.839 318.122 173.098 318.084 174.345C318.045 175.617 317.995 175.681 316.697 175.681C305.463 175.681 294.216 175.681 282.982 175.681C282.245 175.681 281.507 175.783 280.756 175.846C280.54 175.783 280.323 175.681 280.107 175.681C278.428 175.681 276.748 175.694 275.069 175.706C275.018 175.706 274.967 175.706 274.916 175.706C274.611 175.694 274.306 175.668 273.988 175.668C244.586 175.668 215.197 175.668 185.796 175.668C183.175 175.668 180.542 175.694 177.921 175.706C176.61 175.706 175.313 175.681 174.002 175.694C173.684 175.694 173.366 175.795 173.061 175.846C172.794 175.795 172.539 175.694 172.272 175.694C170.682 175.681 169.104 175.694 167.514 175.694C167.272 175.694 167.03 175.77 166.801 175.821C165.262 175.783 163.723 175.744 162.17 175.706L161.852 175.643C161.852 175.643 161.751 175.643 161.7 175.643C161.547 175.643 161.394 175.643 161.242 175.643H161.089C160.313 175.643 159.55 175.643 158.774 175.643C158.723 175.643 158.672 175.643 158.608 175.643C158.455 175.643 158.303 175.668 158.15 175.668C147.667 175.668 137.196 175.668 126.713 175.668C124.398 175.668 122.082 175.706 119.767 175.719C117.655 175.706 113.444 175.655 113.444 175.655H89.7162L89.7417 175.732Z"
      fill="#FFABC8" />
    <path
      d="M432.408 354.265C432.408 354.265 431.835 354.265 431.581 354.265C429.329 354.265 427.09 354.265 424.838 354.265C424.52 354.265 424.405 354.164 424.418 353.846C424.469 352.497 424.723 351.187 425.194 349.927C426.008 347.752 427.28 345.907 429.074 344.38C430.639 343.07 432.395 342.192 434.354 341.696C435.69 341.352 437.064 341.301 438.438 341.403C439.621 341.492 440.779 341.657 441.873 342.166C442.395 342.408 442.942 342.586 443.54 342.815C443.476 342.065 443.362 341.429 443.387 340.792C443.438 339.393 443.514 337.993 443.667 336.607C443.921 334.329 444.596 332.154 445.575 330.08C445.855 329.495 446.122 328.91 446.39 328.324C447.115 327.23 447.84 326.149 448.565 325.055C448.896 324.571 449.214 324.075 449.532 323.579C449.736 323.477 449.977 323.401 450.155 323.261C451.339 322.307 452.509 321.34 453.679 320.373C453.896 320.195 454.099 319.991 454.316 319.788C455.232 319.291 456.148 318.808 457.051 318.312C457.216 318.274 457.407 318.274 457.56 318.21C458.387 317.867 459.176 317.459 460.015 317.18C462 316.531 464.048 316.136 466.147 316.047C466.453 316.047 466.898 316.098 467.076 315.666C467.305 315.106 467.509 314.546 467.763 314.012C468.501 312.498 469.214 310.971 470.028 309.508C470.626 308.414 471.376 307.409 472.063 306.366C473.107 305.03 474.15 303.694 475.193 302.371C476.236 301.378 477.229 300.322 478.336 299.406C480.015 298.007 481.771 296.709 483.501 295.361C484.57 294.737 485.638 294.127 486.72 293.503C486.783 293.49 486.847 293.478 486.898 293.452C489.913 291.837 493.094 290.628 496.401 289.826C498.373 289.343 500.409 289.101 502.419 288.834C503.742 288.656 505.091 288.63 506.427 288.529C507.521 288.592 508.615 288.643 509.709 288.732C510.93 288.834 512.164 288.936 513.373 289.127C514.594 289.317 515.79 289.61 516.999 289.852C517.648 289.992 518.284 290.132 518.933 290.272C519.035 290.348 519.136 290.463 519.251 290.488C521.719 291.162 524.047 292.193 526.312 293.35C528.487 294.457 530.574 295.742 532.52 297.244C534.352 298.656 536.095 300.182 537.673 301.887C538.983 303.312 540.243 304.788 541.388 306.366C543.703 309.521 545.484 312.968 546.808 316.633C547.495 318.554 548.016 320.551 548.462 322.536C548.818 324.151 548.996 325.805 549.187 327.459C549.238 327.968 549.39 328.108 549.861 328.07C550.79 327.994 551.731 327.854 552.673 327.892C554.059 327.943 555.446 328.057 556.82 328.286C558.118 328.503 559.416 328.821 560.675 329.228C562.469 329.826 564.174 330.614 565.713 331.721C566.718 332.446 567.787 333.121 568.703 333.948C570.344 335.424 571.82 337.052 572.978 338.948C574.148 340.869 575.102 342.879 575.726 345.029C575.98 345.919 576.145 346.848 576.285 347.777C576.451 348.858 576.578 349.953 576.642 351.034C576.68 351.823 576.591 352.612 576.565 353.4C576.54 354.202 576.514 354.24 575.687 354.24C568.588 354.24 561.502 354.24 554.403 354.24C553.932 354.24 553.474 354.304 553.003 354.342C552.863 354.304 552.736 354.24 552.596 354.24C551.54 354.24 550.472 354.24 549.416 354.253C549.378 354.253 549.352 354.253 549.314 354.253C549.123 354.253 548.919 354.227 548.729 354.227C530.167 354.227 511.617 354.227 493.055 354.227C491.401 354.227 489.735 354.24 488.081 354.253C487.254 354.253 486.427 354.24 485.613 354.253C485.409 354.253 485.218 354.316 485.015 354.354C484.849 354.316 484.684 354.253 484.519 354.253C483.514 354.253 482.521 354.253 481.516 354.253C481.363 354.253 481.211 354.304 481.058 354.329C480.078 354.304 479.112 354.278 478.132 354.253L477.928 354.215C477.928 354.215 477.865 354.215 477.827 354.215C477.725 354.215 477.636 354.215 477.534 354.215H477.432C476.949 354.215 476.453 354.215 475.969 354.215C475.931 354.215 475.906 354.215 475.867 354.215C475.766 354.215 475.677 354.227 475.575 354.227C468.959 354.227 462.343 354.227 455.728 354.227C454.265 354.227 452.802 354.253 451.351 354.265C450.028 354.265 447.369 354.227 447.369 354.227H432.395L432.408 354.265Z"
      fill="#FFABC8" />
    <path
      d="M384.838 88.0616C384.838 88.0616 384.266 88.0616 384.011 88.0616C381.759 88.0616 379.52 88.0616 377.268 88.0616C376.95 88.0616 376.836 87.9598 376.849 87.6417C376.899 86.2931 377.154 84.9827 377.625 83.7232C378.439 81.5477 379.711 79.7029 381.505 78.1762C383.07 76.8658 384.826 75.988 386.785 75.4918C388.121 75.1483 389.495 75.0974 390.869 75.1992C392.052 75.2882 393.21 75.4536 394.304 75.9625C394.825 76.2043 395.372 76.3824 395.97 76.6114C395.907 75.8608 395.792 75.2246 395.818 74.5885C395.869 73.1891 395.945 71.7896 396.098 70.4028C396.352 68.1255 397.026 65.95 398.006 63.8762C398.286 63.291 398.553 62.7058 398.82 62.1205C399.545 61.0264 400.271 59.945 400.996 58.8509C401.327 58.3674 401.645 57.8713 401.963 57.3751C402.166 57.2733 402.408 57.197 402.586 57.057C403.769 56.1029 404.94 55.1359 406.11 54.169C406.326 53.9909 406.53 53.7874 406.746 53.5838C407.662 53.0876 408.578 52.6042 409.482 52.108C409.647 52.0698 409.838 52.0698 409.99 52.0062C410.817 51.6627 411.606 51.2556 412.446 50.9757C414.431 50.3269 416.479 49.9325 418.578 49.8434C418.883 49.8434 419.329 49.8943 419.507 49.4617C419.736 48.902 419.939 48.3422 420.194 47.8078C420.932 46.2939 421.644 44.7672 422.458 43.3041C423.056 42.21 423.807 41.2049 424.494 40.1617C425.537 38.8258 426.58 37.49 427.624 36.1668C428.667 35.1745 429.659 34.1185 430.766 33.2025C432.446 31.803 434.201 30.5053 435.932 29.1568C437 28.5334 438.069 27.9227 439.15 27.2993C439.214 27.2866 439.277 27.2738 439.328 27.2484C442.344 25.6327 445.524 24.424 448.832 23.6225C450.804 23.1391 452.84 22.8973 454.85 22.6302C456.173 22.4521 457.521 22.4266 458.857 22.3248C459.951 22.3884 461.046 22.4393 462.14 22.5284C463.361 22.6302 464.595 22.7319 465.804 22.9228C467.025 23.1136 468.221 23.4062 469.43 23.648C470.078 23.7879 470.715 23.9279 471.363 24.0678C471.465 24.1441 471.567 24.2586 471.681 24.2841C474.15 24.9584 476.478 25.9889 478.742 27.1466C480.918 28.2535 483.004 29.5384 484.951 31.0397C486.783 32.4519 488.526 33.9786 490.104 35.6834C491.414 37.1083 492.673 38.5841 493.819 40.1617C496.134 43.3168 497.915 46.7646 499.238 50.4286C499.925 52.3497 500.447 54.3472 500.892 56.3319C501.248 57.9476 501.426 59.6015 501.617 61.2554C501.668 61.7643 501.821 61.9043 502.292 61.8661C503.22 61.7898 504.162 61.6498 505.103 61.688C506.49 61.7389 507.877 61.8534 509.251 62.0824C510.548 62.2987 511.846 62.6167 513.106 63.0238C514.9 63.6218 516.604 64.4106 518.144 65.5174C519.149 66.2426 520.217 66.9169 521.133 67.7439C522.775 69.2197 524.251 70.8481 525.408 72.7438C526.579 74.6648 527.533 76.675 528.156 78.8251C528.411 79.7156 528.576 80.6444 528.716 81.5731C528.881 82.6545 529.009 83.7487 529.072 84.8301C529.11 85.6189 529.021 86.4076 528.996 87.1964C528.971 87.9979 528.945 88.0361 528.118 88.0361C521.019 88.0361 513.933 88.0361 506.834 88.0361C506.363 88.0361 505.905 88.0997 505.434 88.1379C505.294 88.0997 505.167 88.0361 505.027 88.0361C503.971 88.0361 502.902 88.0361 501.846 88.0488C501.808 88.0488 501.783 88.0488 501.745 88.0488C501.554 88.0488 501.35 88.0234 501.159 88.0234C482.597 88.0234 464.048 88.0234 445.486 88.0234C443.832 88.0234 442.165 88.0361 440.512 88.0488C439.685 88.0488 438.858 88.0361 438.043 88.0488C437.84 88.0488 437.649 88.1124 437.445 88.1506C437.28 88.1124 437.115 88.0488 436.949 88.0488C435.944 88.0488 434.952 88.0488 433.947 88.0488C433.794 88.0488 433.641 88.0997 433.489 88.1252C432.509 88.0997 431.542 88.0743 430.563 88.0488L430.359 88.0107C430.359 88.0107 430.295 88.0107 430.257 88.0107C430.156 88.0107 430.066 88.0107 429.965 88.0107H429.863C429.379 88.0107 428.883 88.0107 428.4 88.0107C428.362 88.0107 428.336 88.0107 428.298 88.0107C428.196 88.0107 428.107 88.0234 428.005 88.0234C421.39 88.0234 414.774 88.0234 408.158 88.0234C406.695 88.0234 405.232 88.0488 403.782 88.0616C402.459 88.0616 399.8 88.0234 399.8 88.0234H384.826L384.838 88.0616Z"
      fill="#FFABC8" />
    <path
      d="M200.63 504.008C200.63 504.008 200.3 504.008 200.16 504.008C198.875 504.008 197.59 504.008 196.305 504.008C196.127 504.008 196.063 503.957 196.063 503.767C196.088 502.99 196.228 502.24 196.508 501.515C196.979 500.268 197.704 499.212 198.735 498.334C199.625 497.583 200.643 497.087 201.763 496.795C202.526 496.604 203.315 496.566 204.104 496.629C204.778 496.68 205.452 496.782 206.076 497.062C206.368 497.202 206.686 497.304 207.03 497.431C206.992 496.998 206.928 496.642 206.941 496.273C206.966 495.472 207.017 494.67 207.106 493.881C207.246 492.571 207.64 491.337 208.2 490.141C208.353 489.81 208.505 489.467 208.671 489.136C209.091 488.512 209.511 487.889 209.918 487.266C210.109 486.986 210.287 486.706 210.477 486.426C210.592 486.362 210.732 486.324 210.834 486.248C211.508 485.701 212.182 485.141 212.857 484.594C212.984 484.492 213.098 484.378 213.226 484.263C213.747 483.983 214.269 483.703 214.79 483.423C214.892 483.398 214.994 483.398 215.083 483.36C215.554 483.169 216.012 482.927 216.495 482.775C217.64 482.406 218.811 482.177 220.007 482.126C220.185 482.126 220.439 482.164 220.541 481.909C220.668 481.591 220.783 481.273 220.935 480.955C221.355 480.09 221.762 479.212 222.233 478.373C222.576 477.749 223.009 477.164 223.403 476.566C224.001 475.803 224.599 475.039 225.197 474.276C225.795 473.703 226.368 473.105 227.004 472.571C227.971 471.77 228.976 471.019 229.968 470.256C230.579 469.899 231.202 469.543 231.813 469.2C231.851 469.2 231.889 469.187 231.915 469.174C233.645 468.246 235.464 467.559 237.36 467.101C238.492 466.821 239.65 466.681 240.808 466.528C241.571 466.426 242.334 466.414 243.11 466.35C243.734 466.388 244.37 466.414 244.993 466.464C245.693 466.528 246.393 466.579 247.093 466.693C247.792 466.808 248.479 466.973 249.166 467.113C249.535 467.19 249.904 467.279 250.273 467.355C250.337 467.393 250.388 467.457 250.451 467.482C251.864 467.864 253.199 468.462 254.497 469.123C255.744 469.76 256.94 470.497 258.059 471.35C259.115 472.164 260.108 473.029 261.011 474.009C261.762 474.823 262.487 475.675 263.136 476.579C264.459 478.385 265.476 480.357 266.24 482.469C266.634 483.563 266.927 484.708 267.181 485.853C267.385 486.782 267.487 487.724 267.601 488.665C267.639 488.958 267.716 489.034 267.983 489.009C268.517 488.958 269.051 488.881 269.586 488.907C270.375 488.932 271.176 488.996 271.965 489.136C272.716 489.263 273.453 489.441 274.179 489.683C275.209 490.026 276.189 490.472 277.067 491.108C277.652 491.528 278.25 491.909 278.784 492.38C279.726 493.232 280.565 494.161 281.24 495.243C281.914 496.337 282.448 497.494 282.817 498.728C282.97 499.237 283.059 499.772 283.135 500.293C283.224 500.917 283.301 501.54 283.339 502.164C283.364 502.609 283.301 503.067 283.288 503.525C283.288 503.983 283.262 504.008 282.792 504.008C278.721 504.008 274.662 504.008 270.591 504.008C270.324 504.008 270.057 504.046 269.789 504.072C269.713 504.046 269.637 504.008 269.56 504.008C268.95 504.008 268.339 504.008 267.741 504.008C267.728 504.008 267.703 504.008 267.69 504.008C267.576 504.008 267.461 503.996 267.359 503.996C256.723 503.996 246.088 503.996 235.464 503.996C234.51 503.996 233.569 503.996 232.614 504.008C232.144 504.008 231.673 504.008 231.202 504.008C231.088 504.008 230.973 504.046 230.859 504.059C230.77 504.034 230.668 504.008 230.579 504.008C230.006 504.008 229.434 504.008 228.861 504.008C228.772 504.008 228.683 504.034 228.607 504.059C228.047 504.046 227.487 504.034 226.928 504.021L226.813 503.996C226.813 503.996 226.775 503.996 226.762 503.996C226.711 503.996 226.648 503.996 226.597 503.996H226.533C226.253 503.996 225.973 503.996 225.693 503.996C225.668 503.996 225.655 503.996 225.63 503.996C225.579 503.996 225.515 503.996 225.464 503.996C221.673 503.996 217.882 503.996 214.091 503.996C213.251 503.996 212.411 504.008 211.584 504.021C210.821 504.021 209.294 503.996 209.294 503.996H200.707L200.63 504.008Z"
      fill="#FFABC8" />
    <path
      d="M559.707 472.113C559.707 472.113 559.377 472.113 559.237 472.113C557.952 472.113 556.667 472.113 555.382 472.113C555.204 472.113 555.14 472.062 555.14 471.871C555.166 471.095 555.306 470.345 555.585 469.62C556.056 468.373 556.781 467.317 557.812 466.439C558.702 465.688 559.72 465.192 560.84 464.9C561.603 464.709 562.392 464.671 563.181 464.734C563.855 464.785 564.529 464.887 565.153 465.167C565.445 465.307 565.763 465.408 566.107 465.536C566.069 465.103 566.005 464.747 566.018 464.378C566.043 463.576 566.094 462.775 566.183 461.986C566.323 460.676 566.718 459.442 567.277 458.246C567.43 457.915 567.583 457.571 567.748 457.241C568.168 456.617 568.588 455.994 568.995 455.37C569.186 455.091 569.364 454.811 569.555 454.531C569.669 454.467 569.809 454.429 569.911 454.353C570.585 453.806 571.259 453.246 571.934 452.699C572.061 452.597 572.175 452.482 572.303 452.368C572.824 452.088 573.346 451.808 573.868 451.528C573.969 451.503 574.071 451.503 574.16 451.465C574.631 451.274 575.089 451.032 575.572 450.879C576.717 450.51 577.888 450.281 579.084 450.231C579.262 450.231 579.516 450.269 579.618 450.014C579.745 449.696 579.86 449.378 580.012 449.06C580.432 448.195 580.839 447.317 581.31 446.478C581.654 445.854 582.086 445.269 582.481 444.671C583.079 443.908 583.677 443.144 584.274 442.381C584.872 441.808 585.445 441.21 586.081 440.676C587.048 439.875 588.053 439.124 589.045 438.361C589.656 438.004 590.279 437.648 590.89 437.305C590.928 437.305 590.966 437.292 590.992 437.279C592.722 436.35 594.541 435.663 596.437 435.205C597.569 434.926 598.727 434.786 599.885 434.633C600.648 434.531 601.412 434.518 602.188 434.455C602.811 434.493 603.447 434.518 604.071 434.569C604.77 434.633 605.47 434.684 606.17 434.798C606.869 434.913 607.556 435.078 608.243 435.218C608.612 435.294 608.981 435.384 609.35 435.46C609.414 435.498 609.465 435.562 609.528 435.587C610.941 435.969 612.276 436.567 613.574 437.228C614.821 437.864 616.017 438.602 617.136 439.455C618.192 440.269 619.185 441.134 620.088 442.114C620.839 442.928 621.564 443.78 622.213 444.684C623.536 446.49 624.554 448.462 625.317 450.574C625.711 451.668 626.004 452.813 626.258 453.958C626.462 454.887 626.564 455.828 626.678 456.77C626.716 457.063 626.793 457.139 627.06 457.113C627.594 457.063 628.129 456.986 628.663 457.012C629.452 457.037 630.253 457.101 631.042 457.241C631.793 457.368 632.531 457.546 633.256 457.788C634.286 458.131 635.266 458.576 636.144 459.213C636.729 459.632 637.327 460.014 637.861 460.485C638.803 461.337 639.642 462.266 640.317 463.347C640.991 464.442 641.525 465.599 641.894 466.833C642.047 467.342 642.136 467.877 642.212 468.398C642.301 469.022 642.378 469.645 642.416 470.268C642.441 470.714 642.378 471.172 642.365 471.63C642.365 472.088 642.34 472.113 641.869 472.113C637.798 472.113 633.739 472.113 629.668 472.113C629.401 472.113 629.134 472.151 628.867 472.177C628.79 472.151 628.714 472.113 628.638 472.113C628.027 472.113 627.416 472.113 626.818 472.113C626.806 472.113 626.78 472.113 626.767 472.113C626.653 472.113 626.538 472.1 626.437 472.1C615.801 472.1 605.165 472.1 594.541 472.1C593.587 472.1 592.646 472.1 591.692 472.113C591.221 472.113 590.75 472.113 590.279 472.113C590.165 472.113 590.05 472.151 589.936 472.164C589.847 472.139 589.745 472.113 589.656 472.113C589.084 472.113 588.511 472.113 587.939 472.113C587.849 472.113 587.76 472.139 587.684 472.164C587.124 472.151 586.565 472.139 586.005 472.126L585.89 472.1C585.89 472.1 585.852 472.1 585.839 472.1C585.788 472.1 585.725 472.1 585.674 472.1H585.61C585.33 472.1 585.051 472.1 584.771 472.1C584.745 472.1 584.732 472.1 584.707 472.1C584.656 472.1 584.593 472.1 584.542 472.1C580.75 472.1 576.959 472.1 573.168 472.1C572.328 472.1 571.488 472.113 570.661 472.126C569.898 472.126 568.371 472.1 568.371 472.1H559.784L559.707 472.113Z"
      fill="#FFABC8" />
    <path
      d="M1003.36 488.754C1003.36 488.754 1003.03 488.754 1002.89 488.754C1001.61 488.754 1000.32 488.754 999.038 488.754C998.86 488.754 998.796 488.703 998.796 488.512C998.822 487.736 998.962 486.986 999.242 486.26C999.712 485.014 1000.44 483.958 1001.47 483.08C1002.36 482.329 1003.38 481.833 1004.5 481.54C1005.26 481.35 1006.05 481.311 1006.84 481.375C1007.51 481.426 1008.19 481.528 1008.81 481.808C1009.1 481.948 1009.42 482.049 1009.76 482.177C1009.72 481.744 1009.66 481.388 1009.67 481.019C1009.7 480.217 1009.75 479.416 1009.84 478.627C1009.98 477.317 1010.37 476.083 1010.93 474.887C1011.09 474.556 1011.24 474.212 1011.4 473.882C1011.82 473.258 1012.24 472.635 1012.65 472.011C1012.84 471.731 1013.02 471.452 1013.21 471.172C1013.33 471.108 1013.47 471.07 1013.57 470.994C1014.24 470.447 1014.92 469.887 1015.59 469.34C1015.72 469.238 1015.83 469.123 1015.96 469.009C1016.48 468.729 1017 468.449 1017.52 468.169C1017.63 468.144 1017.73 468.144 1017.82 468.106C1018.29 467.915 1018.75 467.673 1019.23 467.52C1020.37 467.151 1021.54 466.922 1022.74 466.872C1022.92 466.872 1023.17 466.91 1023.27 466.655C1023.4 466.337 1023.52 466.019 1023.67 465.701C1024.09 464.836 1024.5 463.958 1024.97 463.118C1025.31 462.495 1025.74 461.91 1026.14 461.312C1026.73 460.548 1027.33 459.785 1027.93 459.022C1028.53 458.449 1029.1 457.851 1029.74 457.317C1030.7 456.515 1031.71 455.765 1032.7 455.001C1033.31 454.645 1033.94 454.289 1034.55 453.946C1034.58 453.946 1034.62 453.933 1034.65 453.92C1036.38 452.991 1038.2 452.304 1040.09 451.846C1041.23 451.566 1042.38 451.426 1043.54 451.274C1044.3 451.172 1045.07 451.159 1045.84 451.096C1046.47 451.134 1047.1 451.159 1047.73 451.21C1048.43 451.274 1049.13 451.325 1049.83 451.439C1050.53 451.554 1051.21 451.719 1051.9 451.859C1052.27 451.935 1052.64 452.024 1053.01 452.101C1053.07 452.139 1053.12 452.203 1053.18 452.228C1054.6 452.61 1055.93 453.208 1057.23 453.869C1058.48 454.505 1059.67 455.243 1060.79 456.096C1061.85 456.91 1062.84 457.775 1063.74 458.755C1064.49 459.569 1065.22 460.421 1065.87 461.325C1067.19 463.131 1068.21 465.103 1068.97 467.215C1069.37 468.309 1069.66 469.454 1069.91 470.599C1070.12 471.528 1070.22 472.469 1070.33 473.411C1070.37 473.703 1070.45 473.78 1070.72 473.754C1071.25 473.703 1071.78 473.627 1072.32 473.653C1073.11 473.678 1073.91 473.742 1074.7 473.882C1075.45 474.009 1076.19 474.187 1076.91 474.429C1077.94 474.772 1078.92 475.217 1079.8 475.854C1080.39 476.273 1080.98 476.655 1081.52 477.126C1082.46 477.978 1083.3 478.907 1083.97 479.988C1084.65 481.082 1085.18 482.24 1085.55 483.474C1085.7 483.983 1085.79 484.518 1085.87 485.039C1085.96 485.663 1086.03 486.286 1086.07 486.909C1086.1 487.355 1086.03 487.813 1086.02 488.271C1086.02 488.729 1086 488.754 1085.53 488.754C1081.45 488.754 1077.4 488.754 1073.32 488.754C1073.06 488.754 1072.79 488.792 1072.52 488.818C1072.45 488.792 1072.37 488.754 1072.29 488.754C1071.68 488.754 1071.07 488.754 1070.47 488.754C1070.46 488.754 1070.44 488.754 1070.42 488.754C1070.31 488.754 1070.19 488.741 1070.09 488.741C1059.46 488.741 1048.82 488.741 1038.2 488.741C1037.24 488.741 1036.3 488.741 1035.35 488.754C1034.88 488.754 1034.41 488.754 1033.94 488.754C1033.82 488.754 1033.71 488.792 1033.59 488.805C1033.5 488.78 1033.4 488.754 1033.31 488.754C1032.74 488.754 1032.17 488.754 1031.59 488.754C1031.51 488.754 1031.42 488.78 1031.34 488.805C1030.78 488.792 1030.22 488.78 1029.66 488.767L1029.55 488.741C1029.55 488.741 1029.51 488.741 1029.5 488.741C1029.44 488.741 1029.38 488.741 1029.33 488.741H1029.27C1028.99 488.741 1028.71 488.741 1028.43 488.741C1028.4 488.741 1028.39 488.741 1028.36 488.741C1028.31 488.741 1028.25 488.741 1028.2 488.741C1024.41 488.741 1020.62 488.741 1016.82 488.741C1015.98 488.741 1015.14 488.754 1014.32 488.767C1013.55 488.767 1012.03 488.741 1012.03 488.741H1003.44L1003.36 488.754Z"
      fill="#FFABC8" />
    <path
      d="M753.814 58.9654C753.814 58.9654 753.483 58.9654 753.343 58.9654C752.058 58.9654 750.773 58.9654 749.488 58.9654C749.31 58.9654 749.247 58.9145 749.247 58.7237C749.272 57.9476 749.412 57.197 749.692 56.4718C750.163 55.225 750.888 54.1691 751.918 53.2912C752.809 52.5406 753.827 52.0444 754.946 51.7518C755.71 51.561 756.498 51.5228 757.287 51.5864C757.961 51.6373 758.636 51.7391 759.259 52.019C759.552 52.1589 759.87 52.2607 760.213 52.3879C760.175 51.9554 760.112 51.5991 760.124 51.2302C760.15 50.4287 760.201 49.6272 760.29 48.8384C760.43 47.528 760.824 46.2939 761.384 45.098C761.536 44.7672 761.689 44.4237 761.855 44.0929C762.274 43.4695 762.694 42.8461 763.101 42.2227C763.292 41.9428 763.47 41.6629 763.661 41.383C763.776 41.3194 763.916 41.2813 764.017 41.2049C764.692 40.6579 765.366 40.0981 766.04 39.551C766.167 39.4492 766.282 39.3347 766.409 39.2202C766.931 38.9403 767.452 38.6604 767.974 38.3805C768.076 38.3551 768.178 38.3551 768.267 38.3169C768.737 38.1261 769.195 37.8844 769.679 37.7317C770.824 37.3628 771.994 37.1337 773.19 37.0829C773.368 37.0829 773.623 37.121 773.725 36.8666C773.852 36.5485 773.966 36.2305 774.119 35.9124C774.539 35.0473 774.946 34.1694 775.417 33.3298C775.76 32.7064 776.193 32.1211 776.587 31.5232C777.185 30.7598 777.783 29.9965 778.381 29.2331C778.979 28.6606 779.551 28.0627 780.188 27.5283C781.154 26.7268 782.16 25.9762 783.152 25.2128C783.763 24.8566 784.386 24.5004 784.997 24.1569C785.035 24.1569 785.073 24.1442 785.098 24.1314C786.829 23.2027 788.648 22.5157 790.544 22.0577C791.676 21.7778 792.834 21.6378 793.991 21.4852C794.755 21.3834 795.518 21.3707 796.294 21.3071C796.918 21.3452 797.554 21.3707 798.177 21.4216C798.877 21.4852 799.577 21.5361 800.276 21.6506C800.976 21.7651 801.663 21.9305 802.35 22.0704C802.719 22.1467 803.088 22.2358 803.457 22.3121C803.52 22.3503 803.571 22.4139 803.635 22.4394C805.047 22.821 806.383 23.419 807.681 24.0806C808.928 24.7167 810.123 25.4546 811.243 26.307C812.299 27.1212 813.291 27.9863 814.195 28.966C814.945 29.7802 815.67 30.6326 816.319 31.5359C817.642 33.3425 818.66 35.3144 819.423 37.4264C819.818 38.5205 820.11 39.6655 820.365 40.8105C820.568 41.7393 820.67 42.6807 820.785 43.6222C820.823 43.9148 820.899 43.9911 821.166 43.9657C821.701 43.9148 822.235 43.8385 822.769 43.8639C823.558 43.8894 824.36 43.953 825.149 44.0929C825.899 44.2201 826.637 44.3983 827.362 44.64C828.393 44.9835 829.372 45.4288 830.25 46.0649C830.836 46.4847 831.433 46.8664 831.968 47.3371C832.909 48.1895 833.749 49.1183 834.423 50.1997C835.097 51.2938 835.632 52.4515 836.001 53.6856C836.153 54.1945 836.242 54.7289 836.319 55.2505C836.408 55.8739 836.484 56.4973 836.522 57.1207C836.548 57.5659 836.484 58.024 836.471 58.482C836.471 58.94 836.446 58.9654 835.975 58.9654C831.904 58.9654 827.846 58.9654 823.775 58.9654C823.507 58.9654 823.24 59.0036 822.973 59.029C822.897 59.0036 822.82 58.9654 822.744 58.9654C822.133 58.9654 821.523 58.9654 820.925 58.9654C820.912 58.9654 820.887 58.9654 820.874 58.9654C820.759 58.9654 820.645 58.9527 820.543 58.9527C809.907 58.9527 799.271 58.9527 788.648 58.9527C787.694 58.9527 786.752 58.9527 785.798 58.9654C785.327 58.9654 784.857 58.9654 784.386 58.9654C784.271 58.9654 784.157 59.0036 784.042 59.0163C783.953 58.9909 783.852 58.9654 783.763 58.9654C783.19 58.9654 782.618 58.9654 782.045 58.9654C781.956 58.9654 781.867 58.9909 781.791 59.0163C781.231 59.0036 780.671 58.9909 780.111 58.9781L779.997 58.9527C779.997 58.9527 779.959 58.9527 779.946 58.9527C779.895 58.9527 779.831 58.9527 779.78 58.9527H779.717C779.437 58.9527 779.157 58.9527 778.877 58.9527C778.852 58.9527 778.839 58.9527 778.814 58.9527C778.763 58.9527 778.699 58.9527 778.648 58.9527C774.857 58.9527 771.066 58.9527 767.274 58.9527C766.435 58.9527 765.595 58.9654 764.768 58.9781C764.005 58.9781 762.478 58.9527 762.478 58.9527H753.89L753.814 58.9654Z"
      fill="#FFABC8" />
    <path
      d="M165.328 392.401H47.6266C21.3232 392.401 0 413.724 0 440.027V779.026C0 805.329 21.3232 826.652 47.6266 826.652H165.328C191.632 826.652 212.955 805.329 212.955 779.026V440.027C212.955 413.724 191.632 392.401 165.328 392.401Z"
      fill="#F266CA" />
    <path
      d="M225.879 488.434H108.177C81.8735 488.434 60.5503 509.757 60.5503 536.06V875.059C60.5503 901.362 81.8735 922.685 108.177 922.685H225.879C252.182 922.685 273.505 901.362 273.505 875.059V536.06C273.505 509.757 252.182 488.434 225.879 488.434Z"
      fill="#F266CA" />
    <path
      d="M369.928 555.236H252.226C225.923 555.236 204.6 576.56 204.6 602.863V941.861C204.6 968.165 225.923 989.488 252.226 989.488H369.928C396.231 989.488 417.555 968.165 417.555 941.861V602.863C417.555 576.56 396.231 555.236 369.928 555.236Z"
      fill="#F266CA" />
    <path
      d="M470.138 386.134H352.437C326.133 386.134 304.81 407.457 304.81 433.761V772.759C304.81 799.062 326.133 820.386 352.437 820.386H470.138C496.442 820.386 517.765 799.062 517.765 772.759V433.761C517.765 407.457 496.442 386.134 470.138 386.134Z"
      fill="#F266CA" />
    <path
      d="M546.592 515.575H471.447C445.144 515.575 423.821 536.899 423.821 563.202V902.2C423.821 928.504 445.144 949.827 471.447 949.827H546.592C572.895 949.827 594.218 928.504 594.218 902.2V563.202C594.218 536.899 572.895 515.575 546.592 515.575Z"
      fill="#F266CA" />
    <path
      d="M994.672 878.847H1112.37C1138.68 878.847 1160 857.523 1160 831.22V492.222C1160 465.918 1138.68 444.595 1112.37 444.595H994.672C968.368 444.595 947.045 465.918 947.045 492.222V831.22C947.045 857.523 968.368 878.847 994.672 878.847Z"
      fill="#F266CA" />
    <path
      d="M934.122 974.88H1051.82C1078.13 974.88 1099.45 953.556 1099.45 927.253V588.255C1099.45 561.951 1078.13 540.628 1051.82 540.628H934.122C907.819 540.628 886.496 561.951 886.496 588.255V927.253C886.496 953.556 907.819 974.88 934.122 974.88Z"
      fill="#F266CA" />
    <path
      d="M790.086 1041.7H907.788C934.091 1041.7 955.415 1020.37 955.415 994.07V655.071C955.415 628.768 934.091 607.445 907.788 607.445H790.086C763.783 607.445 742.46 628.768 742.46 655.071V994.07C742.46 1020.37 763.783 1041.7 790.086 1041.7Z"
      fill="#F266CA" />
    <path
      d="M689.862 872.58H807.563C833.867 872.58 855.19 851.257 855.19 824.953V530.476C855.19 504.173 833.867 482.85 807.563 482.85H689.862C663.558 482.85 642.235 504.173 642.235 530.476V824.953C642.235 851.257 663.558 872.58 689.862 872.58Z"
      fill="#F266CA" />
    <path
      d="M730.205 782.814H767.22C793.523 782.814 814.846 761.49 814.846 735.187V440.71C814.846 414.406 793.523 393.083 767.22 393.083H730.205C703.901 393.083 682.578 414.406 682.578 440.71V735.187C682.578 761.49 703.901 782.814 730.205 782.814Z"
      fill="#F266CA" />
    <path
      d="M356.489 709.73H393.504C419.808 709.73 441.131 688.407 441.131 662.104L441.131 367.627C441.131 341.323 419.808 320 393.504 320H356.489C330.186 320 308.863 341.323 308.863 367.627V662.104C308.863 688.407 330.186 709.73 356.489 709.73Z"
      fill="#F266CA" />
    <path
      d="M613.422 1002.02H688.566C714.87 1002.02 736.193 980.698 736.193 954.395V615.396C736.193 589.093 714.87 567.77 688.566 567.77H613.422C587.119 567.77 565.796 589.093 565.796 615.396V954.395C565.796 980.698 587.119 1002.02 613.422 1002.02Z"
      fill="#F266CA" />
    <path
      d="M168.713 885.099C236.163 885.099 290.843 830.42 290.843 762.969C290.843 695.519 236.163 640.839 168.713 640.839C101.262 640.839 46.5825 695.519 46.5825 762.969C46.5825 830.42 101.262 885.099 168.713 885.099Z"
      fill="#D650B5" />
    <path
      d="M237.618 931.041C305.069 931.041 359.748 876.361 359.748 808.911C359.748 741.46 305.069 686.78 237.618 686.78C170.167 686.78 115.488 741.46 115.488 808.911C115.488 876.361 170.167 931.041 237.618 931.041Z"
      fill="#D650B5" />
    <path
      d="M308.598 880.935C376.049 880.935 430.728 826.256 430.728 758.805C430.728 691.355 376.049 636.675 308.598 636.675C241.147 636.675 186.468 691.355 186.468 758.805C186.468 826.256 241.147 880.935 308.598 880.935Z"
      fill="#D650B5" />
    <path
      d="M233.44 764.014C300.89 764.014 355.57 709.334 355.57 641.883C355.57 574.433 300.89 519.753 233.44 519.753C165.989 519.753 111.31 574.433 111.31 641.883C111.31 709.334 165.989 764.014 233.44 764.014Z"
      fill="#D650B5" />
    <path
      d="M525.717 926.863C593.167 926.863 647.847 872.184 647.847 804.733C647.847 737.282 593.167 682.603 525.717 682.603C458.266 682.603 403.586 737.282 403.586 804.733C403.586 872.184 458.266 926.863 525.717 926.863Z"
      fill="#D650B5" />
    <path
      d="M730.316 933.116C797.767 933.116 852.446 878.436 852.446 810.986C852.446 743.535 797.767 688.855 730.316 688.855C662.866 688.855 608.186 743.535 608.186 810.986C608.186 878.436 662.866 933.116 730.316 933.116Z"
      fill="#D650B5" />
    <path
      d="M838.882 855.869C906.333 855.869 961.012 801.189 961.012 733.739C961.012 666.288 906.333 611.608 838.882 611.608C771.432 611.608 716.752 666.288 716.752 733.739C716.752 801.189 771.432 855.869 838.882 855.869Z"
      fill="#D650B5" />
    <path
      d="M947.449 918.508C1014.9 918.508 1069.58 863.828 1069.58 796.377C1069.58 728.927 1014.9 674.247 947.449 674.247C879.998 674.247 825.319 728.927 825.319 796.377C825.319 863.828 879.998 918.508 947.449 918.508Z"
      fill="#D650B5" />
    <path
      d="M991.287 853.794C1058.74 853.794 1113.42 799.114 1113.42 731.664C1113.42 664.213 1058.74 609.533 991.287 609.533C923.837 609.533 869.157 664.213 869.157 731.664C869.157 799.114 923.837 853.794 991.287 853.794Z"
      fill="#D650B5" />
    <path d="M0 767.5L21 1H1137.5L1160.5 767.5H0Z" fill="url(#paint0_radial_128_1211)" />
  </g>
  <defs>
    <radialGradient id="paint0_radial_128_1211" cx="0" cy="0" r="1" gradientUnits="userSpaceOnUse"
      gradientTransform="translate(579.309 383.934) rotate(3.80293) scale(754.854 411.262)">
      <stop stop-color="#FF90B2" stop-opacity="0" />
      <stop offset="1" stop-color="#FF90B2" />
    </radialGradient>
  </defs>
</svg>